<?xml version="1.0" encoding="UTF-8" standalone="no"?>
<svg
   xmlns:dc="http://purl.org/dc/elements/1.1/"
   xmlns:cc="http://creativecommons.org/ns#"
   xmlns:rdf="http://www.w3.org/1999/02/22-rdf-syntax-ns#"
   xmlns:svg="http://www.w3.org/2000/svg"
   xmlns="http://www.w3.org/2000/svg"
   viewBox="0 0 588.71997 564.56"
   height="564.56"
   width="588.71997"
   xml:space="preserve"
   id="svg2"
   version="1.1"><metadata
     id="metadata8"><rdf:RDF><cc:Work
         rdf:about=""><dc:format>image/svg+xml</dc:format><dc:type
           rdf:resource="http://purl.org/dc/dcmitype/StillImage" /></cc:Work></rdf:RDF></metadata><defs
     id="defs6" /><g
     transform="matrix(1.3333333,0,0,-1.3333333,0,564.56)"
     id="g10"><g
       transform="scale(0.1)"
       id="g12"><path
         id="path14"
         style="fill:#f3f2f1;fill-opacity:1;fill-rule:nonzero;stroke:none"
         d="M 2492.09,20.4688 C 2319.76,102.07 2250.98,296.012 2226.68,476.711 c -4.05,30.148 -12.69,61.211 -2.89,89.937 9.83,28.723 40.07,52.332 69.06,44.243 24.04,-6.711 38.13,-30.981 54.22,-50.301 21.39,-25.699 50.07,-45.11 81.69,-55.27 20.78,-6.679 45.42,-8.75 62.51,4.84 23.46,18.649 20.46,54.899 15.23,84.699 -9.76,55.539 -19.49,111.071 -29.25,166.59 -5.23,29.789 -10.47,60.242 -5.98,90.11 4.48,29.871 20.53,59.64 47.55,72.39 27.04,12.75 64.9,2.332 75.82,-25.859 4.55,-11.731 4.21,-24.75 7.13,-36.988 2.93,-12.25 11.02,-24.973 23.36,-26.43 12.49,-1.481 23,9 30.43,19.226 25.7,35.332 40.02,77.653 53.02,119.532 13,41.89 25.26,84.6 47.65,122.17 22.37,37.57 56.61,70.14 98.91,79.79 42.32,9.64 92.28,-9.03 110.17,-49.13 17.94,-40.23 0.62,-87.03 -20.31,-125.59 -31.07,-57.209 -70.37,-109.779 -116.27,-155.588 -8.27,-8.262 -17.25,-17.191 -18.97,-28.852 -3.11,-20.98 19.06,-37.539 39.81,-40.75 23.48,-3.66 47.21,2.739 70.93,3.93 23.72,1.199 50.65,-4.789 63.17,-25.289 17.37,-28.422 -2.72,-64.691 -24.27,-89.851 -43.14,-50.418 -94.9,-93.231 -152.31,-126 -20.58,-11.739 -42.48,-22.692 -57.56,-41.09 -15.09,-18.418 -21.23,-47.032 -6.99,-66.231 14.25,-19.219 42.83,-21.301 65.09,-13.148 22.26,8.14 40.72,24.109 61.22,36.07 38.37,22.41 91.78,28.539 124.04,-2.449 21.19,-20.363 28.19,-52.531 24.16,-81.762 -4.03,-29.23 -17.68,-56.14 -32.75,-81.359 C 2931.65,200.102 2858.04,123.82 2768.53,74.7695 2679.03,25.7188 2592.44,1.89063 2492.09,20.4688" /><path
         id="path16"
         style="fill:#dadbd8;fill-opacity:1;fill-rule:nonzero;stroke:none"
         d="m 2519.42,140.93 c 11.1,95.14 31.92,198.422 57.41,305.691 6.47,26.801 12.86,53.27 19.16,79.348 6.35,26.043 12.65,51.863 20.36,76.722 15.23,49.821 33.66,96.559 52.55,140.36 18.87,43.84 38.37,84.75 56.89,122.879 18.61,38.09 36.62,73.269 54.4,104.629 35.38,62.891 69.85,110.151 94.85,141.631 12.46,15.78 22.53,27.7 29.47,35.7 3.34,3.8 5.96,6.79 7.94,9.04 1.81,2 2.77,3.01 2.85,2.95 0.08,-0.07 -0.74,-1.19 -2.41,-3.33 -1.88,-2.33 -4.37,-5.44 -7.52,-9.39 -6.65,-8.23 -16.45,-20.37 -28.64,-36.33 -24.42,-31.85 -58.28,-79.29 -93.12,-142.24 -17.52,-31.41 -35.28,-66.598 -53.67,-104.738 -18.32,-38.18 -37.65,-79.102 -56.35,-122.883 -18.7,-43.758 -36.95,-90.367 -52.02,-139.918 -7.64,-24.742 -13.86,-50.34 -20.21,-76.43 -6.29,-26.09 -12.66,-52.551 -19.13,-79.332 -25.46,-107.187 -46.38,-210.18 -57.73,-305 l -5.08,0.641" /><path
         id="path18"
         style="fill:#dadbd8;fill-opacity:1;fill-rule:nonzero;stroke:none"
         d="m 2617.89,603.172 c -0.35,-0.121 -2.14,4.238 -5.06,12.226 -2.97,7.981 -6.87,19.661 -11.48,34.161 -9.23,28.98 -20.63,69.441 -33.02,114.101 -12.41,44.692 -24.35,84.86 -34,113.621 -4.79,14.399 -8.78,26.02 -11.65,34.008 -2.81,8 -4.21,12.52 -3.86,12.66 0.36,0.153 2.44,-4.078 5.87,-11.859 3.49,-7.77 8.06,-19.211 13.33,-33.488 10.66,-28.52 23.24,-68.704 35.65,-113.43 12.12,-44.102 23.07,-83.992 31.45,-114.473 3.87,-13.75 7.14,-25.328 9.77,-34.629 2.27,-8.179 3.37,-12.769 3,-12.898" /><path
         id="path20"
         style="fill:#dadbd8;fill-opacity:1;fill-rule:nonzero;stroke:none"
         d="m 2989.24,739.711 c 0.07,-0.383 -5.27,-1.93 -14.99,-4.422 -9.68,-2.539 -23.73,-6.129 -40.93,-11.141 -34.49,-9.726 -81.64,-24.847 -132.94,-43.796 -51.29,-19.043 -96.97,-38.25 -129.6,-53.114 -16.38,-7.308 -29.47,-13.578 -38.55,-17.867 -9.06,-4.312 -14.15,-6.539 -14.34,-6.199 -0.18,0.348 4.59,3.226 13.37,8.16 8.78,4.887 21.65,11.719 37.86,19.527 32.29,15.821 77.89,35.672 129.32,54.789 51.46,19 99,33.582 133.85,42.352 17.39,4.52 31.62,7.539 41.49,9.43 9.89,1.82 15.38,2.66 15.46,2.281" /><path
         id="path22"
         style="fill:#dadbd8;fill-opacity:1;fill-rule:nonzero;stroke:none"
         d="m 2522.94,148.789 c -0.16,-0.109 -1.33,1.34 -3.42,4.223 -2.41,3.457 -5.34,7.668 -8.91,12.769 -7.68,11.117 -18.38,27.5 -31.33,47.91 -25.93,40.801 -59.98,98.278 -96.7,162.231 -36.73,63.957 -70.2,121.68 -95.24,162.957 -12.24,20.062 -22.31,36.562 -29.8,48.82 -3.22,5.332 -5.86,9.723 -8.04,13.332 -1.78,3.078 -2.65,4.739 -2.49,4.867 0.16,0.09 1.34,-1.367 3.43,-4.25 2.41,-3.449 5.34,-7.66 8.9,-12.757 7.68,-11.11 18.38,-27.493 31.33,-47.903 25.94,-40.797 59.98,-98.289 96.71,-162.25 36.73,-63.949 70.18,-121.668 95.23,-162.957 12.25,-20.039 22.32,-36.543 29.81,-48.801 3.21,-5.332 5.86,-9.742 8.04,-13.332 1.78,-3.089 2.64,-4.757 2.48,-4.859" /><path
         id="path24"
         style="fill:#dadbd8;fill-opacity:1;fill-rule:nonzero;stroke:none"
         d="m 3004.73,399.23 c 0.08,-0.179 -1.54,-1.191 -4.71,-2.941 -3.75,-2.019 -8.36,-4.48 -13.95,-7.469 -12.92,-6.742 -30.36,-15.84 -51.58,-26.922 -43.55,-22.726 -103.33,-54.82 -169.34,-90.367 -66.02,-35.582 -126.17,-67.152 -170.19,-88.98 -22.02,-10.93 -39.92,-19.59 -52.41,-25.332 -5.78,-2.598 -10.54,-4.75 -14.42,-6.508 -3.32,-1.441 -5.12,-2.102 -5.19,-1.922 -0.08,0.172 1.55,1.18 4.7,2.949 3.75,2 8.36,4.461 13.97,7.453 12.92,6.739 30.35,15.84 51.56,26.911 43.54,22.738 103.34,54.839 169.36,90.386 66.02,35.571 126.15,67.133 170.17,88.981 22.01,10.922 39.91,19.59 52.41,25.32 5.78,2.609 10.54,4.762 14.43,6.512 3.32,1.437 5.1,2.097 5.19,1.929" /><path
         id="path26"
         style="fill:#e7e8e5;fill-opacity:1;fill-rule:nonzero;stroke:none"
         d="m 1241.69,2166.94 c 0,0 -118.82,-16.52 -52.11,-276.75 66.71,-260.22 123.29,-394.34 123.29,-394.34 0,0 8.96,-58.95 -38.55,-57.12 -47.52,1.81 -144.4,40.4 -177.26,-10.87 -34.08,-53.18 -4.29,-117.25 70.24,-184.32 74.53,-67.07 232.42,-219.99 246.64,-233.87 13.96,-13.631 24.55,-42.51 -8.02,-46.451 -6,-0.731 -18.75,-0.399 -35.59,-0.071 -74.56,1.461 -229.42,2.911 -234.57,-87.238 -6.31,-110.519 232,-263.25 257.74,-280.43 25.73,-17.199 29.79,-30.66 24.02,-45.601 -5.77,-14.949 -82.65,1.5 -148.75,6.519 -66.09,5.032 -143.61,-0.726 -141.91,-64.789 1.7,-64.07 126.83,-225.961 491.9,-346.339 l 172.8,-44.711 127.75,125.8 c 256.98,285.879 285.12,488.551 254.76,544.993 -30.36,56.437 -100.5,22.91 -155.36,-14.293 -54.86,-37.207 -113.4,-89.688 -125.83,-79.579 -12.43,10.102 -15.6,23.801 -1.81,51.5 13.78,27.719 144.7,278.66 84.3,371.44 -60.39,92.76 -247.61,-45.73 -277.84,-58.49 -30.22,-12.75 -35.38,17.56 -30.03,36.33 5.44,19.12 66.47,230.28 97.81,325.52 31.34,95.23 25.36,165.63 -30.64,194.84 -54,28.16 -118.89,-53.46 -159.22,-78.65 -40.33,-25.19 -61.85,30.41 -61.85,30.41 0,0 -17.54,144.51 -88.98,403.48 -71.42,258.97 -185.31,212.57 -185.31,212.57 l 2.38,0.51" /><path
         id="path28"
         style="fill:#dadbd8;fill-opacity:1;fill-rule:nonzero;stroke:none"
         d="M 1791.39,57.5898 C 1739.68,247.988 1653.46,587.941 1577.92,879.41 c -75.51,291.38 -144.13,555.13 -194.86,745.77 -25.43,95.13 -46.02,172.19 -60.33,225.72 -7.05,26.47 -12.55,47.11 -16.35,61.38 -1.77,6.87 -3.14,12.18 -4.12,16 -0.9,3.61 -1.22,5.51 -1.22,5.51 0,0 0.68,-1.79 1.76,-5.35 1.11,-3.79 2.66,-9.07 4.65,-15.86 4.03,-14.2 9.87,-34.75 17.37,-61.12 15.01,-53.08 36.21,-130.06 62.02,-225.26 51.71,-190.4 120.93,-454.02 196.45,-745.391 75.54,-291.489 161.15,-631.559 211.89,-822.2074 l -3.79,-1.0118" /><path
         id="path30"
         style="fill:#dadbd8;fill-opacity:1;fill-rule:nonzero;stroke:none"
         d="m 1230.41,1368.42 c 0.21,0.33 4.24,-1.86 11.38,-6.1 7.16,-4.21 17.31,-10.59 29.8,-18.6 24.93,-16.08 58.8,-39.14 95.72,-65.28 36.3,-25.89 69.14,-49.31 94.25,-67.23 11.37,-8.01 20.97,-14.76 28.67,-20.19 6.8,-4.73 10.47,-7.51 10.26,-7.84 -0.2,-0.32 -4.25,1.84 -11.43,6.03 -7.14,4.22 -17.31,10.61 -29.71,18.76 -24.78,16.32 -58.34,39.82 -95.24,65.95 -36.48,25.63 -69.47,48.8 -94.71,66.54 -11.41,7.95 -21.05,14.65 -28.79,20.04 -6.77,4.8 -10.41,7.6 -10.2,7.92" /><path
         id="path32"
         style="fill:#dadbd8;fill-opacity:1;fill-rule:nonzero;stroke:none"
         d="m 1514.89,1191.64 c -1.29,0.83 43.2,72.75 99.35,160.62 56.17,87.91 102.73,158.49 104.03,157.66 1.29,-0.82 -43.19,-72.73 -99.36,-160.65 -56.15,-87.87 -102.73,-158.45 -104.02,-157.63" /><path
         id="path34"
         style="fill:#dadbd8;fill-opacity:1;fill-rule:nonzero;stroke:none"
         d="m 1610.69,738.871 c -0.24,0.309 3.15,3.551 9.48,9.16 7.23,6.328 16.25,14.219 26.96,23.598 22.73,19.941 54,47.621 87.38,79.41 33.47,31.742 62.76,61.52 83.79,83.242 9.9,10.219 18.25,18.821 24.93,25.707 5.93,6.051 9.34,9.262 9.63,9.012 0.28,-0.25 -2.59,-3.961 -8.03,-10.461 -5.44,-6.488 -13.48,-15.738 -23.68,-26.937 -20.32,-22.454 -49.26,-52.75 -82.82,-84.571 -33.48,-31.902 -65.25,-59.191 -88.66,-78.402 -11.75,-9.559 -21.34,-17.188 -28.13,-22.27 -6.76,-5.097 -10.61,-7.777 -10.85,-7.488" /><path
         id="path36"
         style="fill:#dadbd8;fill-opacity:1;fill-rule:nonzero;stroke:none"
         d="m 1318.18,842.141 c 0.12,0.371 4.34,-0.68 11.84,-2.871 8.61,-2.661 19.18,-5.93 31.65,-9.79 26.64,-8.5 63.32,-20.589 103.72,-34.281 40.42,-13.679 76.9,-26.367 103.22,-35.808 12.25,-4.52 22.63,-8.34 31.08,-11.45 7.29,-2.839 11.27,-4.562 11.15,-4.929 -0.12,-0.364 -4.33,0.679 -11.85,2.879 -8.6,2.66 -19.17,5.918 -31.64,9.781 -26.64,8.5 -63.32,20.598 -103.74,34.289 -40.4,13.68 -76.88,26.371 -103.2,35.809 -12.25,4.511 -22.63,8.339 -31.08,11.449 -7.29,2.832 -11.27,4.562 -11.15,4.922" /><path
         id="path38"
         style="fill:#dadbd8;fill-opacity:1;fill-rule:nonzero;stroke:none"
         d="m 1351.97,431.691 c 0.12,0.36 5.5,-1.019 15.12,-3.832 10.58,-3.218 24.22,-7.39 40.6,-12.39 34.21,-10.699 81.34,-25.828 133.29,-42.867 51.96,-17.063 98.91,-32.793 132.79,-44.43 16.16,-5.684 29.62,-10.402 40.05,-14.07 9.42,-3.442 14.57,-5.512 14.45,-5.872 -0.12,-0.371 -5.5,1.008 -15.12,3.821 -10.58,3.23 -24.22,7.39 -40.6,12.39 -34.2,10.688 -81.33,25.829 -133.3,42.879 -51.95,17.051 -98.89,32.782 -132.78,44.43 -16.15,5.672 -29.61,10.398 -40.05,14.059 -9.42,3.441 -14.57,5.511 -14.45,5.882" /><path
         id="path40"
         style="fill:#dadbd8;fill-opacity:1;fill-rule:nonzero;stroke:none"
         d="m 1720.11,313.711 c -0.26,0.289 3.93,4.508 11.71,11.91 8.54,8.027 19.68,18.508 33.1,31.141 27.92,26.308 66.34,62.816 107.61,104.297 41.35,41.453 77.78,79.929 103.96,107.98 12.58,13.473 23.03,24.641 31.03,33.199 7.36,7.821 11.57,12.012 11.86,11.774 0.28,-0.25 -3.37,-4.942 -10.24,-13.203 -6.87,-8.25 -17,-20.047 -29.75,-34.411 -25.47,-28.75 -61.52,-67.726 -102.94,-109.238 -41.33,-41.57 -80.25,-77.68 -108.88,-103.289 -14.34,-12.769 -26.06,-22.98 -34.31,-29.859 -8.23,-6.903 -12.9,-10.582 -13.15,-10.301" /><path
         id="path42"
         style="fill:#f3f2f1;fill-opacity:1;fill-rule:nonzero;stroke:none"
         d="m 725.703,3718.66 -97.586,30.45 c 0,0 -25.562,-81.95 -111.179,-56.85 -44.458,13.04 -58.348,49.16 -60.747,74.26 -2.777,29.15 9.664,57.5 31.614,76.87 25.066,22.13 69.074,35.62 131.23,3.52 l 68.645,220.04 -96.496,30.1 -40.211,-128.89 c 0,0 -146.25,7.23 -192.785,-141.92 -44.52,-142.7 73.117,-215.77 127.89,-232.86 41.895,-13.07 187.762,-47.46 239.625,125.28" /><path
         id="path44"
         style="fill:#f3f2f1;fill-opacity:1;fill-rule:nonzero;stroke:none"
         d="m 632.695,4234.21 97.934,-30.55 -28.535,-91.47 -97.934,30.56 28.535,91.46" /><path
         id="path46"
         style="fill:#e7e8e5;fill-opacity:1;fill-rule:nonzero;stroke:none"
         d="m 995.055,3967.09 39.085,10.31 c 0,0 -8.66,32.81 25.28,42.4 17.63,4.97 29.87,-4.21 35.95,-12.11 7.05,-9.18 8.84,-21.29 5.56,-32.39 -3.74,-12.67 -15.65,-26.44 -43.2,-28.75 l 23.24,-88.11 38.64,10.19 -13.62,51.62 c 0,0 50.5,28.3 34.75,88.03 -15.08,57.15 -69.82,56.9 -91.76,51.11 -16.77,-4.42 -72.851,-23.55 -53.925,-92.3" /><path
         id="path48"
         style="fill:#e7e8e5;fill-opacity:1;fill-rule:nonzero;stroke:none"
         d="m 1134.53,3813.97 -39.22,-10.34 -9.67,36.63 39.22,10.34 9.67,-36.63" /><path
         id="path50"
         style="fill:#e7e8e5;fill-opacity:1;fill-rule:nonzero;stroke:none"
         d="m 4223.15,2954.99 38,-13.77 c 0,0 11.56,31.91 44.92,20.47 17.33,-5.95 22.17,-20.46 22.67,-30.41 0.57,-11.57 -4.84,-22.54 -13.86,-29.8 -10.29,-8.29 -27.91,-12.84 -51.89,0.95 l -31.04,-85.68 37.58,-13.61 18.18,50.19 c 0,0 57.63,-5.47 78.67,52.61 20.13,55.57 -25.03,86.52 -46.35,94.25 -16.31,5.91 -73.32,22.1 -96.88,-45.2" /><path
         id="path52"
         style="fill:#e7e8e5;fill-opacity:1;fill-rule:nonzero;stroke:none"
         d="m 4250.68,2749.71 -38.14,13.82 12.91,35.61 38.13,-13.82 -12.9,-35.61" /><path
         id="path54"
         style="fill:#f3f2f1;fill-opacity:1;fill-rule:nonzero;stroke:none"
         d="m 190.27,2519.75 80.425,30.98 c 0,0 -26.015,67.53 43.692,95.77 36.203,14.67 64.297,-1.92 79.015,-17.26 17.102,-17.8 23.727,-43.04 19.368,-67.33 -4.977,-27.75 -26.993,-59.71 -84.868,-71.04 l 69.856,-181.33 79.523,30.63 -40.922,106.22 c 0,0 100.422,71.8 53.075,194.72 C 444.129,2758.7 328.145,2745.39 283,2727.99 248.477,2714.7 134.094,2661.05 190.27,2519.75" /><path
         id="path56"
         style="fill:#f3f2f1;fill-opacity:1;fill-rule:nonzero;stroke:none"
         d="m 521.672,2227.81 -80.703,-31.09 -29.043,75.38 80.707,31.09 29.039,-75.38" /><path
         id="path58"
         style="fill:#f3f2f1;fill-opacity:1;fill-rule:nonzero;stroke:none"
         d="m 4254.41,2214.66 -56.98,-21.96 c 0,0 18.43,-47.85 -30.97,-67.86 -25.65,-10.4 -45.57,1.36 -56,12.23 -12.11,12.61 -16.81,30.5 -13.72,47.72 3.53,19.66 19.12,42.31 60.14,50.34 l -49.5,128.49 -56.36,-21.7 29.01,-75.27 c 0,0 -71.18,-50.88 -37.61,-137.98 32.1,-83.34 114.29,-73.91 146.28,-61.58 24.47,9.42 105.52,47.44 65.71,147.57" /><path
         id="path60"
         style="fill:#f3f2f1;fill-opacity:1;fill-rule:nonzero;stroke:none"
         d="m 4019.57,2421.54 57.19,22.04 20.58,-53.42 -57.2,-22.03 -20.57,53.41" /><path
         id="path62"
         style="fill:#17282f;fill-opacity:1;fill-rule:nonzero;stroke:none"
         d="m 4415.43,3.33203 c 0,-1.4414 -988.51,-2.601561 -2207.61,-2.601561 C 988.297,0.730469 0,1.89063 0,3.33203 c 0,1.42969 988.297,2.59766 2207.82,2.59766 1219.1,0 2207.61,-1.16797 2207.61,-2.59766" /><path
         id="path64"
         style="fill:#f03d5f;fill-opacity:1;fill-rule:nonzero;stroke:none"
         d="m 634.082,263.031 c 9.492,36.778 -14.621,73.699 -41.656,100.379 -27.028,26.692 -59.344,50.578 -73.406,85.86 -22.786,57.16 7.847,131.171 -31.036,178.851 -22.871,28.059 -63.882,37.438 -84.179,67.41 -10.645,15.731 -14.094,35.039 -18.278,53.559 -21.336,94.461 -68.617,182.93 -135.289,253.16 -4.636,-84.121 13.918,-169.398 53.082,-243.98 15.743,-29.989 35.078,-59.219 40.293,-92.68 8.477,-54.328 -21.855,-110.309 -8.504,-163.66 15.262,-61.008 83.801,-101.848 87.051,-164.668 2.746,-53.09 -43.535,-99.703 -40.086,-152.762 1.473,-22.602 11.953,-43.578 23.625,-62.969 C 446.766,53.2695 507.07,6.26172 598.496,7.78906 L 710.469,3.85938 634.082,263.031" /><path
         id="path66"
         style="fill:#ba2c42;fill-opacity:1;fill-rule:nonzero;stroke:none"
         d="M 710.469,3.85938 598.496,7.78906 C 597.047,7.76953 595.605,7.75 594.172,7.75 c -89.008,0 -148.059,46.6016 -188.473,113.781 -11.672,19.391 -22.152,40.367 -23.625,62.969 -0.125,1.922 -0.183,3.82 -0.183,5.73 0.011,49.161 40.347,93.11 40.386,142.379 0,1.551 -0.039,3.102 -0.117,4.653 -3.25,62.82 -71.789,103.66 -87.051,164.668 -2.476,9.898 -3.453,19.89 -3.449,29.941 0.016,37.25 13.442,75.359 13.477,112.961 0.004,6.938 -0.446,13.859 -1.524,20.758 -5.215,33.461 -24.55,62.691 -40.293,92.68 -35.261,67.152 -53.816,142.98 -53.781,218.82 0.008,8.39 0.238,16.781 0.699,25.16 66.672,-70.23 113.953,-158.699 135.289,-253.16 4.184,-18.52 7.633,-37.828 18.278,-53.559 20.297,-29.972 61.308,-39.351 84.179,-67.41 19.707,-24.172 21.559,-55.101 21.555,-87.172 0,-7.41 -0.098,-14.89 -0.101,-22.359 0,-23.949 1.015,-47.828 9.582,-69.32 14.062,-35.282 46.378,-59.168 73.406,-85.86 22.914,-22.621 43.734,-52.59 43.762,-83.59 0.007,-5.582 -0.661,-11.179 -2.106,-16.789 v 0 0 L 710.469,3.85938" /><path
         id="path68"
         style="fill:#17282f;fill-opacity:1;fill-rule:nonzero;stroke:none"
         d="m 733.145,0.921875 c 0,0 10.675,-2.480465 30.832,0.667965 10.031,1.46875 22.386,4.12891 36.386,9.16016 13.914,5.1016 29.754,12.3398 44.934,24.6211 7.289,6.3672 14.57,14.2187 18.488,24.6289 3.856,10.3711 4.559,21.7617 5.274,33.4492 0.593,11.7108 0.609,23.9028 2.613,36.2228 1.887,12.328 6.73,24.449 13.68,36.019 13.203,23.18 35.121,45.149 42.207,76.629 7.66,30.981 2.164,64.489 -3.047,98.16 -5.199,33.579 -10.235,70.2 2.617,105.192 12.008,35.019 36.566,66.629 48.844,106.109 12.226,39.879 6.527,82.758 9.105,125.059 1.188,21.238 5.289,42.488 14.594,62.172 9.058,19.82 21.628,38.519 31.438,59.386 19.87,42.172 23.38,89.993 28.82,136.84 2.65,23.602 5.33,47.461 8.03,71.552 2.67,24.2 4.82,48.31 12.45,71.61 6.9,23.46 16.89,46.17 26.78,69.3 4.84,11.63 9.97,23.27 13,36.19 2.19,13.2 2.82,25.55 3.61,38.51 1.25,25.67 0.19,51.7 -2.98,77.51 -3.05,25.85 -7.71,51.46 -10.49,77.36 -0.17,1.53 -0.34,3.06 -0.5,4.47 l -0.58,5.15 -4.58,-2.29 c -23.98,-12.01 -44.51,-29.9 -60.28,-50.87 -16.04,-20.84 -27.71,-44.35 -37.04,-68.25 -18.702,-48.11 -25.436,-98.53 -34.866,-146.64 -9.203,-48.11 -21.336,-95.43 -46.007,-135.418 C 914.211,963.469 899.359,945.27 886.367,925.82 873.41,906.5 862.008,885.281 858.586,862 c -6.625,-47.371 19.465,-88.98 14.035,-130.918 -1.933,-20.844 -10.226,-40.32 -20.43,-58.113 -10.164,-17.887 -22.117,-34.481 -33.449,-51.16 -11.328,-16.68 -22.121,-33.579 -30.058,-51.661 -8.082,-18.007 -12.536,-37.277 -13.762,-56.128 -2.731,-37.758 2.629,-73.579 -0.129,-107.399 -2.277,-33.883 -14.172,-64.59 -27.641,-92.031 -13.543,-27.551 -28.605,-52.461 -41.23,-76.621 -6.352,-12.059 -12.199,-23.848 -16.977,-35.688 -5.047,-11.801 -7.535,-23.89 -9.828,-35.39 -3.672,-23.219 -3.316,-44.852 -0.824,-63.911 4.867,-38.3589 19.172,-65.98 32.035,-81.5112 2.945,-4.1485 6.367,-7.0782 9.059,-9.8086 2.625,-2.82817 5.226,-4.75004 7.351,-6.23832 4.176,-3.08204 6.407,-4.500005 6.407,-4.500005 0.492,0.566405 -9.219,5.718755 -21.684,21.449225 -12.328,15.6094 -26.012,43.0273 -30.395,80.9609 -2.253,18.84 -2.382,40.188 1.426,62.988 2.356,11.262 4.891,23.11 9.903,34.559 4.765,11.551 10.683,23.281 17.078,35.211 12.718,23.941 27.945,48.75 41.781,76.48 13.73,27.578 26.09,58.899 28.601,93.649 2.942,34.531 -2.257,70.48 0.594,107.351 1.285,18.45 5.621,36.821 13.496,54.25 7.758,17.5 18.395,34.078 29.719,50.629 11.328,16.571 23.418,33.223 33.875,51.481 10.461,18.14 19.242,38.429 21.367,60.5 5.395,44.672 -20.504,86.55 -13.773,130.582 3.23,21.789 14.062,42.078 26.844,61.047 12.785,19.089 27.711,37.312 40.347,57.75 25.446,41.141 37.774,89.381 47.074,137.691 9.52,48.41 16.266,98.29 34.632,145.41 9.15,23.42 20.57,46.34 36.07,66.45 15.25,20.28 34.89,37.32 57.74,48.78 l -5.16,2.85 c 0.16,-1.41 0.33,-2.97 0.5,-4.51 2.82,-26.2 7.49,-51.87 10.5,-77.41 3.15,-25.53 4.19,-51.04 2.97,-76.33 -0.73,-12.48 -1.49,-25.57 -3.44,-37.35 -2.74,-11.78 -7.76,-23.4 -12.57,-34.91 -9.83,-23.04 -19.96,-46.09 -26.99,-70.06 -7.78,-23.86 -10.01,-48.89 -12.6,-72.81 -2.68,-24.098 -5.33,-47.969 -7.95,-71.598 -5.35,-47.051 -8.86,-94.09 -28,-134.813 -9.45,-20.277 -22,-39.027 -31.327,-59.488 -9.621,-20.422 -13.89,-42.879 -15.003,-64.481 -2.442,-43.21 3.179,-85.449 -8.512,-123.73 -11.606,-38.09 -36.035,-69.871 -48.371,-106.012 -13.215,-36.508 -7.742,-74.316 -2.399,-107.797 5.41,-33.711 10.84,-66.519 3.621,-96.293 -6.468,-30.078 -27.757,-51.839 -41.234,-75.687 -7.016,-11.832 -12.039,-24.66 -13.891,-37.449 C 866.02,117.52 866.129,105.219 865.629,93.6094 865.051,82.082 864.391,70.7617 860.855,61.0586 857.34,51.3906 850.484,43.75 843.48,37.5 828.863,25.3984 813.305,18 799.621,12.7617 785.852,7.58203 773.656,4.69922 763.75,3.01953 753.828,1.23047 746.133,0.96875 740.973,0.832031 735.82,1.01172 733.145,0.921875 733.145,0.921875" /><path
         id="path70"
         style="fill:#17282f;fill-opacity:1;fill-rule:nonzero;stroke:none"
         d="m 1086.95,1320.08 c -0.12,0.02 -0.49,-1.13 -1.09,-3.38 -0.65,-2.69 -1.47,-6 -2.47,-10.09 -2.2,-8.81 -4.83,-22.13 -9.05,-38.77 -4.4,-16.58 -14.56,-35.35 -23.25,-58.48 -9.02,-22.95 -18.18,-49.55 -26.61,-79.43 -8.54,-29.85 -16.12,-63.02 -24.03,-98.55 -8.161,-35.45 -16.298,-73.482 -35.841,-109.349 -9.175,-18.191 -19.511,-36.59 -27.714,-56.742 -8.415,-20.141 -12.954,-42.148 -16.122,-64.25 C 915.391,756.691 907.25,711.648 896.633,665.57 874.18,573.809 852.793,486.41 833.32,406.828 813.375,327.52 795.406,256.051 780.254,195.809 765.512,136.109 753.535,87.6016 745.086,53.3906 741.191,36.9688 738.117,24.0117 735.879,14.582 734.98,10.4688 734.25,7.14063 733.656,4.44141 c -0.457,-2.29297 -0.633,-3.492191 -0.511,-3.519535 0.117,-0.023437 0.531,1.109375 1.226,3.328125 0.777,2.66016 1.734,5.9297 2.914,9.9805 2.555,9.3398 6.067,22.1914 10.52,38.4609 8.976,34.0781 21.711,82.3906 37.383,141.8596 15.574,60.129 34.05,131.469 54.554,210.64 19.656,79.598 41.246,167.02 63.906,258.809 10.625,46.02 18.852,91.891 24.098,136.031 3.109,21.938 7.442,43.16 15.52,62.688 7.91,19.633 18.086,37.953 27.265,56.332 19.703,36.539 27.907,75.73 35.749,111.039 7.67,35.62 14.92,68.69 23.1,98.48 8.07,29.83 16.84,56.38 25.47,79.35 8.24,23.05 18.07,42.05 22.19,59.19 3.88,17.04 6.01,30.22 7.77,39.21 0.72,4.14 1.3,7.51 1.77,10.22 0.36,2.31 0.49,3.52 0.37,3.54" /><path
         id="path72"
         style="fill:#f03d5f;fill-opacity:1;fill-rule:nonzero;stroke:none"
         d="M 752.906,0.582031 C 826.047,44.0586 847.035,176.012 816.527,255.441 c -30.507,79.43 -83.91,152 -92.148,236.688 -6.328,65.09 14.988,131.902 -0.168,195.519 -20.465,85.872 -104.293,152.391 -103.328,240.653 0.539,49.519 28.719,96.119 26.472,145.599 -2.75,60.69 -49.332,108.83 -78.179,162.29 -44.16,81.83 -47.067,178.58 -62.164,270.33 -15.102,91.75 -50.067,190.01 -131.383,235.11 -12.012,-77.9 -32.508,-131.25 -26.066,-236.78 2.308,-37.9 46.335,-110.45 52.324,-193.51 3.578,-49.63 6.062,-99.35 9.093,-149.04 2.95,-48.34 6.086,-97.57 23.415,-142.79 13.277,-34.658 34.613,-66.151 44.472,-101.928 18.551,-67.32 -5.82,-140.242 9.156,-208.441 12.692,-57.789 52.688,-107.512 60.856,-166.121 11.476,-82.321 -41.805,-167.86 -14.527,-246.379 13.535,-38.969 45.586,-70.262 54.683,-110.5 7.055,-31.219 -0.64,-64.27 5.75,-95.6293 C 605.086,39.9922 701.457,0.75 752.926,3.85938" /><path
         id="path74"
         style="fill:#17282f;fill-opacity:1;fill-rule:nonzero;stroke:none"
         d="m 395.785,1664.29 c -0.121,-0.02 -0.008,-1.5 0.324,-4.39 0.418,-3.27 0.961,-7.49 1.645,-12.8 1.68,-11.25 3.566,-27.78 7.363,-49.13 4.094,-21.49 15.156,-45.66 24,-74.82 9.336,-29.07 18.617,-62.61 26.824,-100.15 8.352,-37.53 15.329,-79.07 22.664,-123.76 7.571,-44.38 15.321,-93.41 37.489,-139.95 10.258,-23.37 21.773,-46.77 30.406,-71.71 8.855,-24.84 12.93,-51.56 15.43,-79.03 3.781,-55.171 11.129,-112.562 21.449,-170.378 22.402,-115.41 43.734,-225.34 63.156,-325.41 20.473,-99.672 38.914,-189.453 54.442,-265.051 15.675,-75.039 28.398,-135.922 37.304,-178.5626 4.485,-20.6875 8.004,-36.9296 10.504,-48.4765 1.207,-5.211 2.168,-9.3516 2.91,-12.57034 0.692,-2.82031 1.114,-4.26172 1.231,-4.24218 0.121,0.03125 -0.055,1.51953 -0.508,4.39062 -0.566,3.2383 -1.301,7.4414 -2.211,12.6992 -2.187,11.6328 -5.266,27.9492 -9.18,48.75 -8.375,42.7498 -20.332,103.7888 -35.07,179.0198 -15.094,75.679 -33.023,165.57 -52.926,265.363 -19.238,100.027 -40.371,209.93 -62.562,325.309 -10.317,57.879 -17.621,114.429 -21.524,169.829 -2.554,27.62 -6.797,55.15 -15.953,80.61 -8.898,25.46 -20.57,48.96 -30.832,72.14 -22.047,45.85 -29.785,93.74 -37.676,138.26 -7.578,44.62 -14.879,86.28 -23.574,123.88 -8.562,37.63 -18.234,71.23 -27.965,100.29 -9.297,29.26 -20.699,53.23 -25.09,74.16 -4.164,20.97 -6.542,37.66 -8.671,48.76 -0.973,5.26 -1.746,9.44 -2.352,12.7 -0.566,2.85 -0.922,4.29 -1.047,4.27" /><path
         id="path76"
         style="fill:#f03d5f;fill-opacity:1;fill-rule:nonzero;stroke:none"
         d="m 3922.46,3753.31 h -39.82 c 0,0 0,-33.42 -34.72,-34.02 -18.05,-0.31 -27.41,11.5 -31.21,20.56 -4.41,10.51 -3.07,22.49 2.85,32.24 6.74,11.13 21.54,21.25 48.37,16.52 v 89.76 h -39.36 v -52.58 c 0,0 -55.21,-14.27 -55.21,-75.11 0,-58.21 52.2,-71.73 74.55,-71.73 17.09,0 75.3,4.13 74.55,74.36" /><path
         id="path78"
         style="fill:#f03d5f;fill-opacity:1;fill-rule:nonzero;stroke:none"
         d="m 3828.09,3934.17 h 39.95 v -37.31 h -39.95 v 37.31" /><path
         id="path80"
         style="fill:#17282f;fill-opacity:1;fill-rule:nonzero;stroke:none"
         d="m 4140.47,3806.58 c 0.11,0 0.14,1.7 0.08,5.04 -0.1,3.65 -0.23,8.55 -0.42,14.8 -0.14,3.26 -0.14,6.91 -0.48,10.92 -0.56,4 -1.17,8.36 -1.83,13.05 -0.69,4.74 -1.41,9.82 -2.19,15.24 -1.33,5.35 -2.73,11.03 -4.22,17.03 -6.15,23.91 -16.67,52.9 -35.98,82.52 -19.01,29.61 -46.19,60.38 -83.13,85.35 -36.98,24.51 -83.51,43.41 -135.77,48.42 -13.08,0.49 -26.38,2.07 -39.9,0.8 -6.75,-0.46 -13.61,-0.33 -20.41,-1.32 -6.8,-1.02 -13.66,-2.05 -20.56,-3.09 -27.26,-5.57 -55.2,-13.69 -81.2,-27.73 -26.08,-13.73 -50.89,-31.43 -72.99,-53.04 -21.64,-22.04 -40.42,-47.78 -54.89,-76.43 -14.59,-28.55 -24.67,-60.2 -28.6,-93.14 -1.61,-8.16 -1.61,-16.51 -2.11,-24.84 -0.54,-8.34 -0.84,-16.71 -0.45,-25.12 0.68,-16.8 2.79,-33.65 6.35,-50.3 7.7,-36.18 22.43,-70.24 42.14,-100.15 l -0.3,3.04 c -13.94,-34.71 -27.61,-68.77 -40.95,-102.01 l -2.42,-6.04 6.27,1.72 c 37.43,10.3 73.84,20.31 109.05,29.99 l -2.68,0.52 c 38.03,-28.63 81.47,-46.88 124.61,-54.43 21.55,-3.8 43.05,-5.4 63.84,-3.97 10.41,0.44 20.69,0.94 30.67,2.89 5.01,0.78 9.98,1.55 14.92,2.32 4.9,0.91 9.66,2.4 14.44,3.56 76.76,19.71 133.46,66.99 165.91,113.82 16.51,23.44 28.35,46.55 35.73,67.73 1.89,5.27 3.71,10.36 5.46,15.25 1.28,5.03 2.5,9.86 3.68,14.48 1.15,4.62 2.24,9.04 3.29,13.25 0.82,4.25 1.25,8.36 1.84,12.2 0.98,7.72 2.32,14.49 2.61,20.43 0.19,5.84 0.36,10.83 0.5,14.99 0.08,3.79 0.15,6.81 0.2,9.15 0.01,2.06 -0.02,3.1 -0.11,3.1 -0.09,0 -0.23,-1.04 -0.43,-3.09 -0.17,-2.34 -0.42,-5.34 -0.71,-9.12 -0.28,-4.13 -0.61,-9.08 -1,-14.89 -0.46,-5.89 -1.96,-12.6 -3.08,-20.23 -5.51,-30.03 -17.48,-75.04 -51.09,-121.01 -32.47,-45.92 -88.63,-91.99 -164.09,-110.95 -4.7,-1.11 -9.37,-2.56 -14.2,-3.43 -4.85,-0.73 -9.73,-1.47 -14.65,-2.2 -9.81,-1.88 -19.89,-2.32 -30.11,-2.7 -20.4,-1.33 -41.49,0.34 -62.59,4.13 -42.24,7.56 -84.72,25.56 -121.9,53.69 l -1.22,0.92 -1.48,-0.4 c -35.23,-9.62 -71.66,-19.55 -109.11,-29.77 l 3.84,-4.32 c 13.38,33.23 27.09,67.27 41.06,101.97 l 0.65,1.59 -0.96,1.45 c -19.25,29.26 -33.63,62.55 -41.16,97.91 -3.48,16.27 -5.55,32.75 -6.22,49.17 -0.38,8.22 -0.09,16.41 0.45,24.56 0.48,8.14 0.46,16.32 2.05,24.29 3.81,32.21 13.62,63.14 27.85,91.09 14.12,28.03 32.44,53.24 53.57,74.85 21.59,21.2 45.83,38.59 71.32,52.1 25.43,13.84 52.77,21.86 79.46,27.43 6.76,1.04 13.48,2.08 20.14,3.11 6.67,0.99 13.4,0.88 20.01,1.37 13.26,1.31 26.32,-0.21 39.16,-0.62 51.31,-4.68 97.11,-22.98 133.67,-46.84 36.52,-24.32 63.56,-54.42 82.62,-83.46 19.37,-29.06 30.13,-57.59 36.6,-81.19 1.58,-5.93 3.08,-11.53 4.47,-16.81 0.89,-5.37 1.71,-10.39 2.48,-15.08 0.77,-4.65 1.48,-8.97 2.13,-12.94 0.44,-3.96 0.55,-7.6 0.8,-10.82 0.46,-6.22 0.81,-11.1 1.08,-14.73 0.28,-3.33 0.48,-5.03 0.59,-5.03" /><path
         id="path82"
         style="fill:#f03d5f;fill-opacity:1;fill-rule:nonzero;stroke:none"
         d="m 1158.39,2627.2 h 577.53 c 0,0 0,484.91 503.93,493.59 261.71,4.51 397.41,-166.92 452.54,-298.25 64.02,-152.52 44.65,-326.33 -41.14,-467.76 -97.95,-161.51 -308.92,-323.8 -698.13,-255.22 l -3.69,-1286.681 h 571.06 v 762.771 c 0,0 800.92,207.04 800.92,1089.69 0,844.5 -682.92,1026.94 -1049.95,1038.66 -204.24,6.53 -278.27,15.3 -530.87,-20.55 -321.9,-45.7 -589.01,-419.47 -582.2,-1056.25" /><path
         id="path84"
         style="fill:#f03d5f;fill-opacity:1;fill-rule:nonzero;stroke:none"
         d="m 1947.83,3.33203 h 579.559 v 541.289 H 1947.83 Z" /><path
         id="path86"
         style="fill:#f03654;fill-opacity:1;fill-rule:nonzero;stroke:none"
         d="M 2527.39,3.33203 H 2288.16 V 544.621 h -340.33 579.56 V 150.391 15.6094 3.33203" /><path
         id="path88"
         style="fill:#f03654;fill-opacity:1;fill-rule:nonzero;stroke:none"
         d="m 2520.49,812.879 h -239.23 v 762.771 c 0,0 643.17,166.31 776.8,836.01 3.05,-1.04 6.34,-1.93 9.86,-2.64 l 228.23,-2.99 C 3160.07,1741 2520.49,1575.65 2520.49,1575.65 V 921.219 917.672 812.879 M 1953.12,2099.56 v 0 0 0 m -217.2,527.64 h -239.23 c 0,0 0,484.91 503.93,493.59 3.37,0.06 6.74,0.09 10.07,0.09 40.39,0 77.72,-4.23 112.16,-11.86 -386.94,-75.21 -386.93,-481.82 -386.93,-481.82 m 1216.12,568.96 c -230.92,401.62 -710.61,509.83 -951.37,509.83 -26.2,0 -59.06,-0.67 -96.89,-3.07 58.43,5.2 106.51,7.03 154.53,7.03 63.33,0 126.54,-3.18 213.15,-5.95 254.37,-8.12 660.45,-98.2 885.78,-433.89 l -44.71,-2.66 -8.06,13.46 -65.99,-30.68 c -14.4,-6.69 -28.2,-14.5 -41.39,-23.35 -11.59,-7.76 -27.53,-18.19 -45.05,-30.72 m -1261.19,477.5 c 16.28,4.11 32.73,7.36 49.33,9.73 -16.13,-2.87 -32.62,-6.11 -49.33,-9.73" /><path
         id="path90"
         style="fill:#f03d5f;fill-opacity:1;fill-rule:nonzero;stroke:none"
         d="m 919.16,2627.2 h 577.53 c 0,0 0,484.91 503.93,493.59 261.71,4.51 397.41,-166.92 452.54,-298.25 64.02,-152.52 44.65,-326.33 -41.13,-467.76 -97.96,-161.51 -312.61,-308.31 -701.82,-239.73 V 812.879 h 571.05 v 762.771 c 0,0 800.92,207.04 800.92,1089.69 0,844.5 -757.33,1040.65 -1081.51,1040.65 -247.9,0 -1092.408,-59.93 -1081.51,-1078.79" /><path
         id="path92"
         style="fill:#ba2c42;fill-opacity:1;fill-rule:nonzero;stroke:none"
         d="M 2281.26,812.879 H 1710.21 V 2115.05 c 67.41,-11.88 129.54,-17.3 186.79,-17.3 273.23,0.02 434.04,123.5 515.03,257.03 51.43,84.8 78.99,181.25 79.01,277.76 0.02,64.45 -12.25,128.93 -37.88,190 -45.8,109.12 -147.2,245.91 -330.31,286.48 -34.44,7.63 -71.77,11.86 -112.16,11.86 -3.33,0 -6.7,-0.03 -10.07,-0.09 -503.93,-8.68 -503.93,-493.59 -503.93,-493.59 v 0 0 H 919.16 c -0.07,6.47 -0.101,12.89 -0.105,19.29 -0.094,1000.33 835.285,1059.5 1081.615,1059.5 240.76,0 720.45,-108.21 951.37,-509.83 -48.33,-34.56 -108.66,-85.12 -122.72,-139.85 -44.27,-172.42 30.72,-364.93 30.72,-364.93 l 0.91,0.71 c 5.36,-14.53 32.47,-25.84 49.59,-31.02 13.93,-4.21 28.45,-5.42 43.05,-5.42 8.01,0 16.04,0.37 24,0.8 1.76,0.09 3.52,0.19 5.29,0.3 l 60.11,-161.06 c 0,0 -20.11,-12.25 -20.95,-33.23 -0.77,-18.91 8.28,-41.29 36.02,-50.8 -133.63,-669.7 -776.8,-836.01 -776.8,-836.01 V 812.879" /><path
         id="path94"
         style="fill:#f03d5f;fill-opacity:1;fill-rule:nonzero;stroke:none"
         d="m 1708.6,3.33203 h 579.559 v 541.289 H 1708.6 Z" /><path
         id="path96"
         style="fill:#ba2c42;fill-opacity:1;fill-rule:nonzero;stroke:none"
         d="m 1708.6,3.33203 h 579.559 v 541.289 H 1708.6 Z" /><path
         id="path98"
         style="fill:#17282f;fill-opacity:1;fill-rule:nonzero;stroke:none"
         d="m 2065.84,3118.11 c -0.03,-0.18 -3.01,0.01 -8.64,0.52 -5.65,0.29 -13.86,1.88 -24.61,2 -21.39,1.42 -52.53,0.87 -90.56,-3.76 -37.98,-4.75 -82.87,-14.17 -130.72,-30.75 -23.79,-8.57 -48.54,-18.43 -72.84,-31.33 -24.52,-12.43 -48.8,-27.64 -71.24,-46.13 -22.57,-18.3 -41.66,-39.66 -58.3,-61.6 -16.7,-21.87 -31.16,-44.21 -43.69,-66.19 -24.56,-44.29 -41.34,-87 -51.72,-123.86 -10.62,-36.82 -15.26,-67.63 -17.37,-88.94 -1.23,-10.66 -1.55,-18.98 -1.85,-24.63 -0.33,-5.65 -0.59,-8.61 -0.77,-8.61 -0.18,0 -0.27,2.97 -0.28,8.63 -0.04,5.67 -0.05,14.04 0.88,24.78 1.49,21.47 5.61,52.56 15.85,89.76 9.99,37.24 26.53,80.42 51.07,125.2 12.52,22.24 27.02,44.83 43.83,66.97 16.71,22.13 36.05,43.86 59.05,62.51 22.8,18.79 47.39,34.15 72.19,46.64 24.6,12.98 49.59,22.82 73.61,31.34 48.31,16.46 93.58,25.55 131.87,29.87 38.32,4.18 69.67,4.17 91.13,2.12 10.77,-0.43 18.99,-2.35 24.61,-2.98 5.6,-0.85 8.53,-1.39 8.5,-1.56" /><path
         id="path100"
         style="fill:#17282f;fill-opacity:1;fill-rule:nonzero;stroke:none"
         d="m 2936,3221.21 c -0.08,-0.05 -0.71,0.73 -1.87,2.28 -1.32,1.8 -2.98,4.09 -5.06,6.95 -4.56,6.47 -10.92,15.5 -19.01,26.97 -4.17,5.82 -8.51,12.51 -13.76,19.45 -5.55,6.74 -11.58,14.04 -18.03,21.87 -6.47,7.87 -13.36,16.26 -20.68,25.16 -7.52,8.72 -16.29,17.22 -25.04,26.55 -8.96,9.13 -17.87,19.17 -28.01,28.76 -10.36,9.37 -21.15,19.11 -32.3,29.19 -5.62,4.98 -11.13,10.31 -17.12,15.25 -6.11,4.81 -12.31,9.7 -18.6,14.66 -12.7,9.77 -25.3,20.44 -39.05,30.28 -54.81,39.7 -118.91,77.86 -189.23,111.76 -17.8,8.04 -35.37,16 -52.7,23.83 -17.72,6.88 -35.19,13.66 -52.36,20.32 -17.02,7.06 -34.42,12.08 -51.24,17.63 -16.91,5.25 -33.19,11.33 -49.69,15.18 -16.37,4.3 -32.32,8.49 -47.83,12.56 -15.5,4.11 -30.91,6.55 -45.61,9.75 -14.78,2.77 -28.89,6.44 -42.77,8.17 -13.82,2 -27.09,3.92 -39.76,5.75 -25.27,4.33 -48.47,5.19 -68.7,7.23 -10.14,0.8 -19.56,1.88 -28.26,2.29 -8.68,0.23 -16.63,0.45 -23.83,0.64 -14.03,0.45 -25.07,0.8 -32.98,1.06 -3.53,0.17 -6.36,0.3 -8.59,0.41 -1.94,0.12 -2.93,0.22 -2.93,0.32 0,0.08 0.99,0.16 2.92,0.21 2.23,0.03 5.06,0.06 8.59,0.11 7.93,-0.02 18.98,-0.05 33.04,-0.09 7.21,-0.05 15.19,-0.11 23.89,-0.18 8.73,-0.26 18.18,-1.2 28.35,-1.87 20.31,-1.76 43.6,-2.37 68.96,-6.48 12.74,-1.73 26.07,-3.54 39.95,-5.43 13.93,-1.64 28.11,-5.22 42.96,-7.9 14.78,-3.13 30.26,-5.48 45.82,-9.53 15.59,-4.02 31.63,-8.16 48.07,-12.39 16.56,-3.81 32.93,-9.85 49.92,-15.07 16.91,-5.53 34.39,-10.53 51.49,-17.59 17.24,-6.66 34.79,-13.44 52.59,-20.32 17.41,-7.86 35.06,-15.84 52.93,-23.91 70.62,-34.04 134.94,-72.5 189.83,-112.59 13.77,-9.93 26.39,-20.7 39.09,-30.59 6.29,-5.01 12.49,-9.95 18.6,-14.81 5.99,-5 11.49,-10.39 17.11,-15.42 11.14,-10.21 21.89,-20.07 32.23,-29.55 10.12,-9.7 18.99,-19.87 27.9,-29.11 8.7,-9.45 17.4,-18.07 24.86,-26.9 7.23,-9.02 14.06,-17.54 20.45,-25.51 6.35,-7.95 12.28,-15.37 17.75,-22.21 5.14,-7.05 9.38,-13.84 13.42,-19.77 7.77,-11.73 13.86,-20.96 18.24,-27.57 1.9,-2.98 3.42,-5.36 4.63,-7.24 1.01,-1.64 1.5,-2.51 1.42,-2.56" /><path
         id="path102"
         style="fill:#17282f;fill-opacity:1;fill-rule:nonzero;stroke:none"
         d="m 2875.84,1981.27 c 0.13,-0.12 -1.37,-2.18 -4.37,-6 -3.37,-4.18 -7.79,-9.69 -13.32,-16.56 -5.77,-7.22 -12.98,-15.92 -21.81,-25.63 -8.76,-9.75 -18.44,-21.15 -30.06,-32.89 -11.38,-11.97 -23.93,-25 -38.09,-38.31 -13.77,-13.71 -29.4,-27.38 -45.66,-41.96 -33.08,-28.53 -70.77,-58.4 -112.2,-87.17 -41.63,-28.5 -82.96,-53.1 -121.39,-73.89 -19.41,-10.02 -37.75,-19.76 -55.47,-27.75 -17.47,-8.51 -34.12,-15.6 -49.35,-21.98 -15.1,-6.68 -29.2,-11.68 -41.43,-16.4 -12.22,-4.79 -22.91,-8.44 -31.7,-11.27 -8.39,-2.72 -15.11,-4.9 -20.21,-6.56 -4.64,-1.44 -7.1,-2.12 -7.16,-1.94 -0.06,0.16 2.29,1.18 6.82,2.94 5.02,1.89 11.63,4.37 19.88,7.48 8.67,3.11 19.24,7.02 31.32,12.07 12.11,4.97 26.07,10.18 41.03,17.07 15.11,6.58 31.61,13.84 48.95,22.49 17.57,8.13 35.77,17.99 55.05,28.08 38.16,20.93 79.24,45.56 120.71,73.96 41.26,28.64 78.88,58.28 112.01,86.49 16.29,14.44 31.96,27.93 45.82,41.47 14.24,13.12 26.9,25.96 38.42,37.74 11.76,11.54 21.6,22.74 30.55,32.28 9.01,9.5 16.42,17.98 22.43,24.99 5.83,6.61 10.5,11.9 14.05,15.91 3.25,3.61 5.04,5.45 5.18,5.34" /><path
         id="path104"
         style="fill:#17282f;fill-opacity:1;fill-rule:nonzero;stroke:none"
         d="m 2271.17,858.219 c -1.45,0 -2.61,160.621 -2.61,358.721 0,198.17 1.16,358.76 2.61,358.76 1.43,0 2.6,-160.59 2.6,-358.76 0,-198.1 -1.17,-358.721 -2.6,-358.721" /><path
         id="path106"
         style="fill:#17282f;fill-opacity:1;fill-rule:nonzero;stroke:none"
         d="m 2293.19,40.0313 c -1.44,0 -2.6,112.7187 -2.6,251.7307 0,139.078 1.16,251.769 2.6,251.769 1.43,0 2.61,-112.691 2.61,-251.769 0,-139.012 -1.18,-251.7307 -2.61,-251.7307" /><path
         id="path108"
         style="fill:#f03d5f;fill-opacity:1;fill-rule:nonzero;stroke:none"
         d="m 2861.7,2703.96 c -10.08,-20.13 27.29,-36.37 48.84,-42.89 21.56,-6.52 44.56,-5.84 67.05,-4.62 29.81,1.61 60.69,4.39 86.6,19.19 23.03,13.16 40.2,34.9 52.2,58.55 11.99,23.65 19.28,49.36 26.5,74.88 0,0 -236.26,-15.47 -281.19,-105.11" /><path
         id="path110"
         style="fill:#9c2438;fill-opacity:1;fill-rule:nonzero;stroke:none"
         d="m 2953.59,2655.65 c -14.6,0 -29.12,1.21 -43.05,5.42 -17.12,5.18 -44.23,16.49 -49.59,31.02 l 47.23,36.92 c 12.58,9.54 24.53,17.76 38.2,25.53 l 36.5,-97.79 c -1.77,-0.11 -3.53,-0.21 -5.29,-0.3 -7.96,-0.43 -15.99,-0.8 -24,-0.8" /><path
         id="path112"
         style="fill:#f03d5f;fill-opacity:1;fill-rule:nonzero;stroke:none"
         d="m 3529.15,2767.99 c 38.55,-27.55 85.98,-42.44 133.36,-41.88 22.7,0.28 46.75,4.66 63.51,19.98 7.71,7.05 13.46,16.06 21.4,22.84 5.39,4.6 11.7,8.09 16.76,13.05 5.06,4.96 8.88,12.05 7.36,18.97 -1.56,7.09 -7.5,18.51 -13.81,22.08 -27.14,15.4 -59.51,14.85 -90.7,14.13 -31.2,-0.71 -61.93,-7.99 -91.5,-17.94 -24.19,-8.13 -49.54,-19.62 -61.8,-42 l 15.42,-9.23" /><path
         id="path114"
         style="fill:#9c2438;fill-opacity:1;fill-rule:nonzero;stroke:none"
         d="m 3659.91,2726.1 c -45.49,0 -90.88,14.2 -128.25,40.12 0.01,0.17 0.03,0.34 0.05,0.51 0.89,7.34 2.18,16.24 3.95,26.41 0.3,1.84 0.63,3.72 0.97,5.64 35.12,16.68 91.08,33.67 173.84,34.33 0.18,0 0.36,0 0.54,0 37.92,0 60.53,-32.16 60.53,-32.16 l -2.26,5.18 c 1.1,-1.78 1.9,-3.54 2.26,-5.18 0.23,-1.05 0.34,-2.11 0.34,-3.16 -0.01,-5.87 -3.41,-11.61 -7.7,-15.81 -5.06,-4.96 -11.37,-8.45 -16.76,-13.05 -7.94,-6.78 -13.69,-15.79 -21.4,-22.84 -16.76,-15.32 -40.81,-19.7 -63.51,-19.98 -0.87,-0.01 -1.73,-0.01 -2.6,-0.01" /><path
         id="path116"
         style="fill:#f03d5f;fill-opacity:1;fill-rule:nonzero;stroke:none"
         d="m 3067.92,2409.02 498.5,-6.53 c 4.38,-0.06 7.52,4.19 6.18,8.36 l -58.47,182.4 c 0,0 8.62,91.15 20.52,200.83 18.08,166.44 42.12,375.73 42.44,375.17 -34.05,95.55 -235.24,111.84 -235.24,111.84 l -229.32,-13.64 -8.06,13.46 -65.99,-30.68 c -14.4,-6.69 -28.2,-14.5 -41.39,-23.35 -43.55,-29.17 -148.62,-95.99 -167.77,-170.57 -44.27,-172.42 30.72,-364.93 30.72,-364.93 l 48.14,37.63 c 12.58,9.54 24.53,17.76 38.2,25.53 l 96.61,-258.85 c 0,0 -20.11,-12.25 -20.95,-33.23 -0.85,-20.99 10.39,-46.26 45.88,-53.44" /><path
         id="path118"
         style="fill:#ba2c42;fill-opacity:1;fill-rule:nonzero;stroke:none"
         d="m 3236.22,2703.27 c -4.71,0 -9.08,1.01 -12.66,4.29 -6.02,5.5 -7.77,14.47 -6.67,22.54 1.11,8.09 4.65,15.59 7.8,23.1 29.29,69.73 28.28,149.05 55.97,219.42 8.41,-86.02 16.77,-173.41 0.95,-258.38 -10.2,-3.51 -16.18,-7.39 -27.51,-8.75 -5.9,-0.71 -12.13,-2.22 -17.88,-2.22" /><path
         id="path120"
         style="fill:#9c2438;fill-opacity:1;fill-rule:nonzero;stroke:none"
         d="m 3123.41,2513.41 c -8.55,0 -17.03,1.18 -25.42,4.08 l -6.71,5.39 c 20.06,22.03 41.99,44.38 70.45,53.2 11.27,3.49 22.95,4.67 34.75,4.67 11.94,0 24,-1.21 35.87,-2.42 94.14,-9.66 188.29,-15.42 282.43,-25.09 0.56,-8.65 -5.52,-20.56 -13.08,-24.82 -7.54,-4.25 -16.38,-5.48 -25.01,-6.45 -23.16,-2.6 -46.47,-3.9 -69.79,-3.9 -33.55,0 -67.1,2.69 -100.22,8.07 -22.78,3.69 -45.71,8.67 -68.66,8.67 -5.03,0 -10.07,-0.24 -15.1,-0.78 -33.53,-3.64 -67.03,-20.62 -99.51,-20.62" /><path
         id="path122"
         style="fill:#f03d5f;fill-opacity:1;fill-rule:nonzero;stroke:none"
         d="m 3757.15,2833.89 c -40.75,91.64 -184.24,345.25 -184.24,345.25 l -111.15,-139.33 25.94,-273.51 c 0,0 58.68,65.51 222.77,66.81 38.25,0.31 61.07,-32.16 61.07,-32.16 l -14.39,32.94" /><path
         id="path124"
         style="fill:#17282f;fill-opacity:1;fill-rule:nonzero;stroke:none"
         d="m 3089.99,2882.3 c -1.39,-0.37 -9.78,26.41 -18.73,59.82 -8.95,33.41 -15.08,60.8 -13.7,61.17 1.39,0.37 9.78,-26.41 18.73,-59.82 8.96,-33.4 15.09,-60.79 13.7,-61.17" /><path
         id="path126"
         style="fill:#17282f;fill-opacity:1;fill-rule:nonzero;stroke:none"
         d="m 3453.37,3058.35 c 0.25,0.27 3.89,-2.85 10.29,-8.73 6.24,-6.03 15.06,-15.04 24.75,-27.22 19.4,-24.01 43.15,-61.57 53.07,-108.58 4.97,-23.37 5.78,-46.45 3.18,-66.99 -2.57,-20.46 -6.49,-38.45 -9,-53.69 -2.65,-15.2 -4.21,-27.57 -5,-36.16 -0.78,-8.58 -0.99,-13.37 -1.4,-13.37 -0.31,0 -0.79,4.8 -0.62,13.49 0.17,8.69 1.18,21.26 3.38,36.61 2.06,15.36 5.6,33.51 7.88,53.68 2.27,20.07 1.34,42.51 -3.52,65.34 -9.67,45.9 -32.43,83.09 -50.88,107.41 -18.48,24.65 -32.9,37.45 -32.13,38.21" /><path
         id="path128"
         style="fill:#17282f;fill-opacity:1;fill-rule:nonzero;stroke:none"
         d="m 3351.59,2430.81 c 0.09,-0.35 -3.77,-1.45 -10.85,-3.15 -3.53,-0.91 -7.88,-1.87 -13.01,-2.53 -5.13,-0.71 -10.94,-1.83 -17.45,-2.12 -12.99,-1.25 -28.59,-1.22 -45.79,0.25 -17.17,1.8 -35.92,5.22 -55.01,11.02 -19.03,6.03 -36.43,13.84 -51.59,22.08 -15.01,8.53 -27.89,17.34 -37.88,25.72 -5.21,3.93 -9.37,8.15 -13.19,11.64 -3.86,3.44 -6.89,6.7 -9.29,9.45 -4.87,5.41 -7.42,8.5 -7.15,8.74 0.74,0.72 11.48,-11.28 31.9,-26.93 10.15,-7.91 23.03,-16.25 37.9,-24.41 15.04,-7.87 32.16,-15.39 50.84,-21.32 18.74,-5.69 37.12,-9.18 53.97,-11.21 16.87,-1.71 32.2,-2.13 45.04,-1.35 25.7,1.33 41.35,5.14 41.56,4.12" /><path
         id="path130"
         style="fill:#17282f;fill-opacity:1;fill-rule:nonzero;stroke:none"
         d="m 3505.54,2487.84 c 0.61,0.13 2.56,-5.32 3.85,-14.59 1.19,-9.21 1.44,-22.5 -2.69,-36.45 -3.96,-14.02 -12.3,-25.01 -19.59,-30.97 -7.31,-6.08 -12.92,-8.01 -13.17,-7.5 -0.44,0.74 4.42,3.79 10.67,10.19 6.24,6.32 13.38,16.66 17.1,29.77 7.57,26.42 1.87,49.44 3.83,49.55" /><path
         id="path132"
         style="fill:#17282f;fill-opacity:1;fill-rule:nonzero;stroke:none"
         d="m 3478.43,2452.61 c 1.3,0.32 3.95,-14.28 -2.53,-30.76 -6.32,-16.55 -18.12,-25.53 -18.87,-24.43 -1.12,1.09 8.22,11.04 14.01,26.31 6.03,15.19 5.84,28.83 7.39,28.88" /><path
         id="path134"
         style="fill:#17282f;fill-opacity:1;fill-rule:nonzero;stroke:none"
         d="m 3389.17,2781.66 c 1.06,-1.07 -8.18,-11.52 -17.78,-25.59 -9.69,-14.03 -16.1,-26.4 -17.49,-25.81 -1.28,0.5 3.18,14.22 13.2,28.75 9.95,14.58 21.16,23.66 22.07,22.65" /><path
         id="path136"
         style="fill:#17282f;fill-opacity:1;fill-rule:nonzero;stroke:none"
         d="m 3047.04,3023.84 c -0.55,-0.65 -8.46,5.74 -22.11,14.65 -13.63,8.92 -33.33,19.94 -56.57,28.66 -23.28,8.65 -45.39,13.24 -61.53,15.43 -16.14,2.21 -26.3,2.57 -26.29,3.42 -0.02,0.58 10.2,1.54 26.7,0.23 16.47,-1.27 39.19,-5.37 62.94,-14.2 23.71,-8.89 43.58,-20.68 56.85,-30.51 13.31,-9.83 20.41,-17.25 20.01,-17.68" /><path
         id="path138"
         style="fill:#17282f;fill-opacity:1;fill-rule:nonzero;stroke:none"
         d="m 3572.96,3182.46 c 0.97,-1.37 -26,-17.84 -50.52,-47.27 -24.83,-29.2 -36.45,-58.57 -37.97,-57.85 -0.59,0.22 1.54,7.84 6.96,19.39 5.4,11.54 14.46,26.85 27.02,41.81 12.6,14.92 26.14,26.46 36.58,33.75 10.46,7.32 17.61,10.71 17.93,10.17" /><path
         id="path140"
         style="fill:#17282f;fill-opacity:1;fill-rule:nonzero;stroke:none"
         d="m 3367.1,3264.86 c 0.16,0.08 0.93,-1.51 2.24,-4.62 1.49,-3.06 3.01,-7.79 4.67,-14.02 3.15,-12.41 4.86,-31.52 -0.19,-54.16 -5.2,-22.36 -17.68,-48.41 -40.8,-68.91 -22.92,-20.65 -56.66,-32.89 -92,-32.77 -35.43,0.24 -68.66,12.35 -92.9,31.04 -24.54,18.46 -40.77,41.53 -51.12,61.96 -10.17,20.68 -14.9,38.85 -17.02,51.46 -1.03,6.33 -1.65,11.26 -1.8,14.63 -0.24,3.36 -0.27,5.12 -0.09,5.14 0.52,0.05 1.13,-6.98 3.88,-19.38 2.7,-12.35 7.92,-30.09 18.31,-50.16 10.57,-19.83 26.74,-42.1 50.71,-59.79 23.63,-17.91 55.77,-29.45 90.05,-29.69 34.18,-0.11 66.67,11.56 88.83,31.17 22.39,19.5 34.86,44.54 40.37,66.17 5.36,21.89 4.29,40.54 1.79,52.86 -2.47,12.41 -5.55,18.85 -4.93,19.07" /><path
         id="path142"
         style="fill:#ba2c42;fill-opacity:1;fill-rule:nonzero;stroke:none"
         d="m 3353.91,2728.49 c 0.28,0.75 0.56,1.49 0.84,2.23 2.36,2.37 8.28,13.24 16.64,25.35 5.7,8.35 11.27,15.42 14.63,20.02 0.59,0.4 1.21,0.76 1.86,1.07 1.52,0.75 3.25,1.19 4.95,1.19 1.44,0 2.86,-0.32 4.11,-1.04 4.33,-2.49 4.98,-8.37 5.14,-13.38 0.32,-10.33 0.53,-20.88 0.85,-31.22 l -49.02,-4.22" /><path
         id="path144"
         style="fill:#0f191d;fill-opacity:1;fill-rule:nonzero;stroke:none"
         d="m 3354.75,2730.72 c 6.08,15.68 14.32,27.93 25.89,40.47 1.64,1.79 3.38,3.55 5.38,4.9 -3.36,-4.6 -8.93,-11.67 -14.63,-20.02 -8.36,-12.11 -14.28,-22.98 -16.64,-25.35" /><path
         id="path146"
         style="fill:#ba2c42;fill-opacity:1;fill-rule:nonzero;stroke:none"
         d="m 3536.7,2799.2 c 2.46,13.88 5.72,29.82 7.96,47.63 2.6,20.54 1.79,43.62 -3.18,66.99 -1.42,6.73 -3.13,13.27 -5.06,19.61 14.12,-19.93 25.15,-42.27 28.38,-66.37 3.51,-26.24 -14.6,-43.1 -28.1,-67.86" /><path
         id="path148"
         style="fill:#0f191d;fill-opacity:1;fill-rule:nonzero;stroke:none"
         d="m 3531.43,2787.37 c 11.88,47.39 18.95,86.43 -2.17,155.64 2.46,-3.13 4.85,-6.32 7.16,-9.58 1.93,-6.34 3.64,-12.88 5.06,-19.61 4.97,-23.37 5.78,-46.45 3.18,-66.99 -2.24,-17.81 -5.5,-33.75 -7.96,-47.63 -0.92,-1.7 -1.83,-3.43 -2.7,-5.2 l -2.57,-6.63" /><path
         id="path150"
         style="fill:#f8a58d;fill-opacity:1;fill-rule:nonzero;stroke:none"
         d="m 3466.89,542.449 -29.91,-448.5388 -195.01,2.3007 -30.71,466.3201 255.63,-20.082" /><path
         id="path152"
         style="fill:#f03d5f;fill-opacity:1;fill-rule:nonzero;stroke:none"
         d="m 3442.54,152.961 0.04,-12.973 c 0,0 219.82,-88.4685 222.12,-130.19894 l -436.59,2.56254 6.79,145.2504 c 64.73,-30.442 132.65,-34.223 207.64,-4.641" /><path
         id="path154"
         style="fill:#ffffff;fill-opacity:1;fill-rule:nonzero;stroke:none"
         d="m 3278.83,110.898 c -8.45,-2.269 -14.35,-11.7261 -12.44,-20.2769 1.92,-8.5508 11.49,-14.6289 19.99,-12.5195 8.5,2.1093 15.92,13.2578 13.07,21.5468 -2.86,8.2816 -14.49,14.7926 -22.24,10.7106" /><path
         id="path156"
         style="fill:#17282f;fill-opacity:1;fill-rule:nonzero;stroke:none"
         d="m 3228.11,12.3516 1.63,34.9375 417.85,-15.2383 c 0,0 19.4,-8.582 17.11,-22.26174 l -436.59,2.56254" /><path
         id="path158"
         style="fill:#17282f;fill-opacity:1;fill-rule:nonzero;stroke:none"
         d="m 3444.11,138.762 c -0.08,-2.141 -10.76,-3.043 -21.28,-9.84 -10.71,-6.512 -16.16,-15.723 -18.13,-14.863 -1.96,0.433 1.29,13.152 14.19,21.152 12.81,8.117 25.7,5.5 25.22,3.551" /><path
         id="path160"
         style="fill:#17282f;fill-opacity:1;fill-rule:nonzero;stroke:none"
         d="m 3489.79,119.551 c 0.48,-2.071 -8.78,-5.653 -16.07,-14.621 -7.56,-8.7581 -9.45,-18.5003 -11.57,-18.3909 -2.01,-0.3203 -3.4,12.1718 5.88,23.1519 9.17,11.071 21.72,11.891 21.76,9.86" /><path
         id="path162"
         style="fill:#17282f;fill-opacity:1;fill-rule:nonzero;stroke:none"
         d="m 3515.47,64.5898 c -1.94,-0.4414 -4.84,10.2188 0.71,21.8594 5.46,11.6914 15.53,16.2308 16.42,14.4608 1.2,-1.7616 -5.31,-7.9881 -9.71,-17.6209 -4.63,-9.5196 -5.3,-18.5078 -7.42,-18.6993" /><path
         id="path164"
         style="fill:#17282f;fill-opacity:1;fill-rule:nonzero;stroke:none"
         d="m 3431.32,3822.51 c 11.25,28.04 -2.38,61.95 -26.72,79.86 -24.35,17.9 -56.79,21.76 -86.64,17.03 -29.84,-4.72 -57.83,-17.18 -85.42,-29.51 -25.02,25.15 -64.57,34.66 -98.29,23.65 -33.71,-11.01 -60.03,-42.03 -65.38,-77.1 -21.49,5.45 -45.73,-1.89 -60.57,-18.35 -14.86,-16.46 -19.67,-41.32 -12.04,-62.14 l 135.16,-47.48 147.63,-259.67 c 43.15,-36.84 113.74,-35.84 155.84,2.2 42.1,38.04 50.23,108.17 17.95,154.82 8.34,7.3 15.18,16.09 20.73,25.65 23.41,14.46 41.72,37.03 47.77,63.98 12.85,57.09 -31.9,120.25 -90.02,127.06" /><path
         id="path166"
         style="fill:#f8a58d;fill-opacity:1;fill-rule:nonzero;stroke:none"
         d="m 3341.85,3281.09 c -8.4,42.27 -14.25,71.22 -14.16,70.92 0,0 79.7,31.03 74.2,142.36 -2.72,55.36 -23.85,142.65 -43.44,213.51 -17.63,63.77 -77.09,134.09 -140.07,113.77 l -190.43,-93.01 c -19.13,-6.18 -22.48,-24.15 -17.96,-43.74 l 0.31,-9.55 74.09,-306.57 31.31,-137.03 c 13.85,-58.3 69.9,-96.39 129.21,-87.8 65.62,9.51 109.85,72.1 96.94,137.14" /><path
         id="path168"
         style="fill:#17282f;fill-opacity:1;fill-rule:nonzero;stroke:none"
         d="m 3357.19,3633.82 c 1.79,-7.25 -2.87,-14.73 -10.4,-16.74 -7.51,-2 -15.07,2.22 -16.85,9.47 -1.79,7.24 2.87,14.74 10.38,16.74 7.53,2.01 15.09,-2.23 16.87,-9.47" /><path
         id="path170"
         style="fill:#17282f;fill-opacity:1;fill-rule:nonzero;stroke:none"
         d="m 3348.98,3655.11 c -1.33,-2.16 -13.43,3.38 -28.28,0.23 -14.89,-2.95 -24.2,-12.88 -26.19,-11.4 -0.97,0.64 0.09,4.26 4.12,8.71 3.95,4.43 11.23,9.45 20.5,11.36 9.27,1.89 17.78,0.12 22.98,-2.44 5.32,-2.55 7.54,-5.48 6.87,-6.46" /><path
         id="path172"
         style="fill:#17282f;fill-opacity:1;fill-rule:nonzero;stroke:none"
         d="m 3212.5,3600.64 c 1.78,-7.24 -2.88,-14.73 -10.4,-16.73 -7.51,-2 -15.07,2.23 -16.86,9.47 -1.79,7.24 2.87,14.73 10.38,16.74 7.53,2.01 15.09,-2.24 16.88,-9.48" /><path
         id="path174"
         style="fill:#17282f;fill-opacity:1;fill-rule:nonzero;stroke:none"
         d="m 3205.21,3619.86 c -1.35,-2.17 -13.45,3.38 -28.3,0.23 -14.88,-2.95 -24.19,-12.89 -26.19,-11.4 -0.96,0.64 0.09,4.25 4.13,8.71 3.95,4.43 11.23,9.45 20.5,11.36 9.27,1.88 17.77,0.11 22.99,-2.44 5.29,-2.55 7.53,-5.48 6.87,-6.46" /><path
         id="path176"
         style="fill:#17282f;fill-opacity:1;fill-rule:nonzero;stroke:none"
         d="m 3280.5,3525.8 c -0.24,0.83 8.67,4.36 23.25,9.42 3.71,1.19 7.14,2.7 7.24,5.42 0.31,2.93 -2.13,6.69 -4.9,10.72 -5.5,8.44 -11.25,17.29 -17.29,26.56 -24.22,37.89 -42.61,69.37 -41.08,70.33 1.53,0.96 22.42,-28.96 46.64,-66.86 5.88,-9.36 11.5,-18.28 16.86,-26.83 2.34,-4.01 5.84,-8.38 5.09,-14.49 -0.43,-3.05 -2.78,-5.69 -5.07,-6.86 -2.28,-1.25 -4.41,-1.74 -6.26,-2.24 -14.91,-3.98 -24.24,-6.01 -24.48,-5.17" /><path
         id="path178"
         style="fill:#f68260;fill-opacity:1;fill-rule:nonzero;stroke:none"
         d="m 3327.69,3352.01 c 0,0 -71.5,-19.88 -152.36,8.22 0,0 52.35,-68.41 158.06,-35.71 l -5.7,27.49" /><path
         id="path180"
         style="fill:#17282f;fill-opacity:1;fill-rule:nonzero;stroke:none"
         d="m 3208.01,3641.05 c -0.98,-4.28 -16.28,-4.17 -33.71,-8.46 -17.52,-3.94 -31.15,-10.86 -33.94,-7.46 -1.27,1.63 0.75,5.78 6.03,10.46 5.24,4.66 13.9,9.54 24.38,12.02 10.48,2.46 20.41,1.95 27.17,0.12 6.82,-1.83 10.48,-4.66 10.07,-6.68" /><path
         id="path182"
         style="fill:#17282f;fill-opacity:1;fill-rule:nonzero;stroke:none"
         d="m 3343.34,3702.39 c -2.39,-4.02 -15.24,-3.06 -29.85,-5.95 -14.69,-2.46 -26.43,-7.91 -30.01,-4.98 -1.61,1.46 -0.37,5.25 4.35,9.57 4.65,4.31 12.99,8.77 23.05,10.62 10.07,1.83 19.39,0.59 25.18,-1.81 5.88,-2.39 8.3,-5.51 7.28,-7.45" /><path
         id="path184"
         style="fill:#17282f;fill-opacity:1;fill-rule:nonzero;stroke:none"
         d="m 3074.8,3800.27 c 4.39,-21.59 18.78,-40.94 38.2,-51.35 19.42,-10.42 43.49,-11.71 63.91,-3.42 15.84,6.43 32.17,18.49 48.24,12.68 16.91,-6.12 22.22,-28.59 37.9,-37.38 22.42,-12.55 49.44,9.2 75.04,7.05 19.78,-1.66 35.11,-17.05 50.59,-29.46 15.49,-12.42 36.97,-22.81 54.45,-13.42 -4.66,16.5 -9.38,33.17 -17.7,48.17 -8.31,15 -20.66,28.4 -36.63,34.64 -8.75,3.42 -18.34,4.62 -26.7,8.92 -18.05,9.27 -26.14,30.26 -39.3,45.7 -16.97,19.92 -44.02,30.76 -70.04,28.08 -21.66,-2.24 -42.19,-13.13 -63.94,-12.21 -16.07,0.68 -31.48,7.83 -47.56,7.56 -31.34,-0.53 -54.87,-27.97 -72.26,-54.04" /><path
         id="path186"
         style="fill:#17282f;fill-opacity:1;fill-rule:nonzero;stroke:none"
         d="m 3180.17,3777.38 c -14.32,1.07 -43.78,4.08 -53.46,14.29 -21.02,22.19 -52.38,33.82 -80.42,26.38 -28.02,-7.43 -50.6,-35.46 -50.19,-66.61 -34.26,-7.38 -63.26,-35.88 -73,-71.72 -9.74,-35.84 0.19,-77.58 24.98,-105.04 6.5,-7.2 16.42,-23.77 16.42,-23.77 0,0 -12.86,-16.05 -17.8,-26.98 -22.85,-50.59 39.18,-69.97 39.18,-69.97 0.17,-34.01 31.51,-33.85 51.63,-33.75 19.34,0.1 31.24,-53.52 46.88,-51.43 l -15.89,165.61 c 1.93,-0.76 4.3,-1.27 7.33,-1.32 37.91,-0.68 28.01,71.03 15.74,89.59 10.68,14.34 21.48,28.89 28.41,45.75 6.93,16.85 7.37,58.97 1.48,76.66 13.2,1.95 65,31.84 58.71,32.31" /><path
         id="path188"
         style="fill:#f8a58d;fill-opacity:1;fill-rule:nonzero;stroke:none"
         d="m 3074.16,3525.62 c -5.9,22.7 -34.06,32.82 -51.56,17.2 -9.6,-8.57 -15.32,-22.98 -9.26,-47.12 16.15,-64.38 77.44,-34.89 77.09,-33.01 -0.22,1.16 -9.36,36.36 -16.27,62.93" /><path
         id="path190"
         style="fill:#f68260;fill-opacity:1;fill-rule:nonzero;stroke:none"
         d="m 3064.65,3482.14 c -0.34,0.14 -0.92,-1.07 -2.6,-2.41 -1.63,-1.3 -4.67,-2.69 -8.34,-2.27 -7.43,0.79 -15.86,10.15 -19.09,21.67 -1.63,5.82 -1.8,11.71 -0.88,16.85 0.78,5.2 3,9.25 6.27,10.72 3.21,1.64 6.15,0.2 7.39,-1.41 1.32,-1.59 1.23,-2.97 1.6,-3 0.22,-0.11 1.11,1.42 -0.08,3.95 -0.58,1.21 -1.72,2.55 -3.54,3.4 -1.86,0.87 -4.29,0.94 -6.62,0.08 -4.87,-1.58 -8.19,-7.27 -9.2,-12.91 -1.28,-5.74 -1.22,-12.39 0.61,-18.92 3.66,-12.87 13.35,-23.34 23.33,-23.7 4.83,-0.04 8.26,2.27 9.83,4.28 1.6,2.09 1.57,3.61 1.32,3.67" /><path
         id="path192"
         style="fill:#33535f;fill-opacity:1;fill-rule:nonzero;stroke:none"
         d="m 3419.46,3615.54 c -0.4,0.49 5.82,4.5 14.03,14.55 8.05,9.96 17.83,26.92 20.1,50 1.1,11.41 0.55,24.26 -3.58,37.09 -4.13,12.75 -11.5,25.57 -22.87,35.52 -22.18,20.18 -58.94,29.52 -91.91,17.9 -3.02,-0.97 -5.8,-2.48 -8.65,-3.65 -2.74,-1.43 -5.32,-3.04 -7.86,-4.47 l -3.97,-2.23 -0.06,4.41 c -0.09,7.75 -3.01,15.25 -8.08,21.01 -5.03,5.79 -11.55,10.19 -18.47,13.2 -14.05,6.18 -29.14,6.28 -42.93,3.14 -27.61,-6.27 -51.02,-18.89 -73.12,-21.43 -21.91,-2.79 -40.09,2.65 -49.89,10.03 -5.06,3.53 -7.9,7.46 -9.78,10 -1.61,2.77 -2.37,4.24 -2.22,4.32 0.52,0.43 3.22,-6.14 13.11,-12.73 9.68,-6.56 27.21,-11.24 48.3,-8.1 10.48,1.55 21.66,5.29 33.57,9.7 11.93,4.36 24.7,9.59 39.04,12.79 7.17,1.53 14.7,2.66 22.6,2.26 7.84,-0.41 15.75,-2.19 23.3,-5.36 7.51,-3.22 14.68,-7.96 20.38,-14.48 5.76,-6.46 9.31,-15.31 9.39,-24.37 l -4.03,2.18 c 2.72,1.55 5.47,3.26 8.39,4.78 3.03,1.27 6.01,2.86 9.21,3.9 35.08,12.31 73.54,2.29 96.9,-19.24 11.94,-10.63 19.65,-24.37 23.78,-37.81 4.15,-13.55 4.5,-26.95 3.11,-38.76 -2.84,-23.9 -13.49,-41.12 -22.21,-50.91 -4.41,-4.94 -8.28,-8.39 -11.15,-10.35 -2.81,-2.04 -4.33,-3.03 -4.43,-2.89" /><path
         id="path194"
         style="fill:#33535f;fill-opacity:1;fill-rule:nonzero;stroke:none"
         d="m 3406.37,3841.6 c -0.37,-0.72 -6.84,5.07 -20.72,7.12 -6.84,0.89 -15.49,0.85 -24.61,-2.24 -9.11,-2.82 -18.72,-8.85 -25.34,-18.42 l -2.45,-3.53 -1.51,4 c -8.09,21.57 -31.72,42.08 -60.99,45.29 -22,2.53 -42,-7.37 -58.65,-16.94 -16.75,-9.81 -32.06,-19.41 -46.47,-24.05 -14.26,-5.01 -26.87,-5.56 -35.19,-4.14 -4.16,0.73 -7.3,1.71 -9.33,2.57 -2.03,0.88 -3.05,1.42 -2.99,1.58 0.17,0.47 4.46,-1.32 12.58,-2.13 8.08,-0.76 20.04,0.31 33.68,5.59 13.8,4.92 28.44,14.53 45.31,24.73 8.5,4.97 17.67,10.07 28.02,13.67 10.26,3.7 21.89,5.55 33.58,4.31 31.44,-3.47 56.36,-25.58 64.65,-48.87 l -3.95,0.47 c 7.55,10.46 18.16,16.67 27.97,19.4 9.84,2.97 19,2.62 26.12,1.3 7.18,-1.41 12.39,-3.96 15.68,-5.99 3.23,-2.15 4.73,-3.56 4.61,-3.72" /><path
         id="path196"
         style="fill:#f03d5f;fill-opacity:1;fill-rule:nonzero;stroke:none"
         d="m 3274.74,3496.24 c -4.53,4.38 -11.31,5.81 -17.57,5.1 -5.88,-0.67 -13.11,-5.93 -16.84,-12.3 l -0.26,-0.38 -0.55,-0.82 0.24,0.16 c -1.37,-2.26 -2.17,-4.92 -1.88,-7.54 0.63,-5.91 5.12,-10.87 10.45,-13.53 8.43,-4.22 19.63,-3 26.19,3.8 6.56,6.8 7.02,18.95 0.22,25.51" /><path
         id="path198"
         style="fill:#17282f;fill-opacity:1;fill-rule:nonzero;stroke:none"
         d="m 3279.74,3465.13 c -0.78,-0.15 -1.76,2.97 -4.42,7.16 -2.6,4.17 -7.26,9.4 -13.92,12.45 -6.68,3.02 -13.69,3.1 -18.53,2.31 -4.92,-0.74 -7.9,-2.06 -8.3,-1.37 -0.36,0.52 2.09,3.11 7.41,4.95 5.19,1.85 13.51,2.5 21.57,-1.15 8.05,-3.68 13.03,-10.38 15.05,-15.51 2.1,-5.22 1.77,-8.76 1.14,-8.84" /><path
         id="path200"
         style="fill:#f03d5f;fill-opacity:1;fill-rule:nonzero;stroke:none"
         d="m 3075.63,3452.77 c 0.49,0.31 2.86,-5.01 -0.89,-12.59 -1.87,-3.59 -5.31,-7.57 -10.66,-9.64 -5.34,-2.14 -12.18,-1.34 -17.63,2.1 -5.46,3.43 -9.14,9.25 -9.52,15 -0.45,5.71 1.65,10.54 4.09,13.78 5.22,6.66 11.04,6.81 10.96,6.24 0.34,-0.79 -4.39,-2.27 -7.9,-8.29 -1.68,-2.94 -2.96,-6.98 -2.38,-11.21 0.5,-4.2 3.3,-8.42 7.52,-11.11 4.25,-2.64 9.27,-3.35 13.27,-1.98 4.07,1.31 7.15,4.2 9.08,6.98 3.9,5.78 3.2,10.68 4.06,10.72" /><path
         id="path202"
         style="fill:#f03d5f;fill-opacity:1;fill-rule:nonzero;stroke:none"
         d="m 3041.87,3456.62 c 0.56,-0.26 -0.3,-3.41 -4.66,-5.54 -2.12,-0.98 -5.06,-1.6 -8.3,-0.81 -3.27,0.76 -6.4,3.19 -8.18,6.5 -1.8,3.31 -2.13,7.25 -0.97,10.41 1.1,3.14 3.24,5.27 5.23,6.51 4.16,2.48 7.26,1.47 7.17,0.86 0.06,-0.77 -2.45,-1.29 -4.94,-3.78 -2.55,-2.41 -4.42,-7.07 -1.91,-11.52 2.35,-4.54 7.27,-5.51 10.68,-4.7 3.45,0.72 5.26,2.54 5.88,2.07" /><path
         id="path204"
         style="fill:#f8a58d;fill-opacity:1;fill-rule:nonzero;stroke:none"
         d="m 3151.84,2568.5 c 0,0 247.59,-14.35 393.94,-15.7 113.37,-1.05 163.88,29.07 186.55,101.9 19.03,61.15 -21.86,178.41 -21.86,178.41 -76.65,-0.38 -123.95,-10.95 -173.29,-34.07 l 13.15,-53.62 -399.2,-34.42 0.71,-142.5" /><path
         id="path206"
         style="fill:#f68260;fill-opacity:1;fill-rule:nonzero;stroke:none"
         d="m 3633.55,2688.22 c -1.37,-0.93 -13.01,20.76 -37.37,37.09 -24.11,16.72 -48.56,19.62 -48.19,21.24 0.06,0.61 6.21,0.76 15.88,-1.39 9.64,-2.11 22.68,-7.01 35.25,-15.55 12.53,-8.57 21.85,-18.91 27.34,-27.11 5.54,-8.22 7.64,-14 7.09,-14.28" /><path
         id="path208"
         style="fill:#f8a58d;fill-opacity:1;fill-rule:nonzero;stroke:none"
         d="m 3061.18,2799.4 v 0 c 0,0 -76.59,-18.36 -132.82,-55.97 l 59.81,-162.63 c 19.97,-53.37 81.17,-79.6 129.64,-51.91 75.31,43.02 101.86,168.64 101.86,168.64 l 82.76,358.78 -137.09,85.9 -104.16,-342.81" /><path
         id="path210"
         style="fill:#f8a58d;fill-opacity:1;fill-rule:nonzero;stroke:none"
         d="m 3165.34,3142.21 5.53,118 -30.61,119.51 c -1.7,6.62 -2.54,14.88 2.82,18.91 5.61,4.21 14,4 18.49,-0.59 8.38,-8.56 48.36,-113.53 48.36,-113.53 0,0 60.66,36.46 71.49,38.24 10.83,1.77 24.33,-30.87 25.18,-33.45 0.85,-2.58 0.1,-21.94 0.1,-21.94 0,0 37.52,-1.11 40.88,-6.26 3.36,-5.15 4.33,-31.84 4.33,-31.84 0,0 15.87,-5.08 18.43,-17.12 2.56,-12.04 7.66,-31.82 0.18,-36.16 -7.48,-4.34 -23.28,-13.02 -23.28,-13.02 0,0 -6.36,-61.23 -8,-66.8 -1.64,-5.57 -36.81,-39.85 -36.81,-39.85 l -137.09,85.9" /><path
         id="path212"
         style="fill:#f68260;fill-opacity:1;fill-rule:nonzero;stroke:none"
         d="m 3037.83,2526.42 c 0.15,0.33 3.73,-2.13 11.48,-4.65 7.68,-2.57 19.83,-4.9 35.35,-2.79 15.35,2.07 34.27,8.81 51.19,23.6 16.67,15.09 33.55,35.09 47.57,60.24 6.99,12.57 13.26,26.39 18.53,41.31 5.4,14.9 8.91,31.06 12.83,47.94 7.85,33.7 16.31,69.98 25.29,108.53 18.05,77.15 38.23,163.39 59.96,256.27 l 0.16,0.7 0.52,0.5 c 6.88,6.76 13.81,13.71 20.65,20.85 3.42,3.58 6.83,7.21 10.09,10.94 1.59,1.85 3.27,3.78 4.54,5.64 1.17,1.21 1.21,3.62 1.68,6.18 2.71,20.02 4.82,40.7 7.03,61.53 l 0.15,1.33 1.16,0.65 c 6.26,3.51 12.62,7.07 19.06,10.69 1.46,0.86 3.6,1.9 4.5,2.62 0.79,0.64 1.5,1.77 1.79,3.35 0.74,3.05 0.5,6.77 0.12,10.36 -0.91,7.04 -2.56,15.23 -4.43,21.74 -2.5,6.07 -9.36,10.44 -15.92,12.85 l -1.73,0.63 -0.08,1.74 c -0.24,5.8 -0.63,11.76 -1.29,17.69 -0.33,2.96 -0.71,5.94 -1.33,8.78 -0.31,1.34 -0.69,2.88 -1.14,3.7 l -0.62,0.59 -1.68,0.7 c -11.12,3.06 -24.22,3.52 -36.62,4.13 l -2.61,0.13 0.08,2.57 c 0.18,6.18 0.45,13.06 0.16,19.54 0.17,1.71 -1.39,4.3 -2.32,6.7 -1.08,2.41 -2.23,4.79 -3.44,7.14 -2.42,4.66 -5.06,9.21 -8.17,13.2 -1.56,1.95 -3.26,3.85 -5.08,4.99 -2.04,1.22 -2.9,1.5 -5.32,0.61 -4.65,-1.64 -9.45,-4.14 -14.1,-6.46 -18.67,-9.72 -36.8,-20.32 -54.58,-30.88 l -2.61,-1.55 -1.12,2.8 c -9.46,23.68 -18.79,47.07 -28,70.11 -4.6,11.52 -9.16,22.97 -13.69,34.31 -1.66,5.74 -5.67,8.98 -10.99,10.29 -5.29,1.36 -10.54,-0.28 -13.02,-4.77 -1.25,-2.12 -1.79,-4.67 -1.52,-7.12 0.29,-2.23 1.39,-5.6 2.05,-8.33 1.51,-5.77 3.02,-11.52 4.52,-17.23 3.01,-11.43 5.98,-22.76 8.93,-33.98 5.89,-22.45 11.68,-44.47 17.33,-66.02 l 0.1,-0.35 -0.02,-0.36 c -1.99,-41.06 -3.9,-80.47 -5.71,-117.99 l -0.02,-0.28 -0.08,-0.25 c -37.79,-122.97 -69.13,-224.96 -91.11,-296.45 -11.03,-35.42 -19.7,-63.28 -25.7,-82.51 -2.98,-9.32 -5.28,-16.53 -6.91,-21.64 -1.6,-4.88 -2.59,-7.36 -2.59,-7.36 0,0 0.56,2.61 1.94,7.55 1.5,5.16 3.6,12.44 6.31,21.83 5.72,19.32 14.02,47.28 24.57,82.86 21.54,71.61 52.29,173.79 89.35,296.98 l -0.1,-0.53 c 1.71,37.53 3.5,76.94 5.35,118.01 l 0.08,-0.71 c -5.71,21.54 -11.54,43.55 -17.49,65.98 -2.97,11.21 -5.97,22.54 -9,33.96 -1.51,5.72 -3.02,11.45 -4.56,17.22 -0.71,3.06 -1.62,5.37 -2.18,9.06 -0.38,3.5 0.36,7.12 2.15,10.18 1.81,3.08 4.59,5.56 8.11,6.82 3.5,1.15 7,1.05 10.33,0.32 3.31,-0.79 6.55,-2.27 9.16,-4.66 2.68,-2.2 4.49,-5.99 5.39,-8.63 4.54,-11.34 9.12,-22.78 13.74,-34.3 9.23,-23.04 18.59,-46.41 28.07,-70.1 l -3.72,1.26 c 17.87,10.63 35.97,21.24 54.87,31.08 4.82,2.39 9.44,4.86 14.84,6.78 1.46,0.42 2.91,0.95 5.03,0.71 1.82,-0.26 3.5,-1 4.74,-1.9 2.69,-1.73 4.56,-3.92 6.34,-6.12 3.46,-4.44 6.2,-9.2 8.72,-14.05 1.25,-2.43 2.44,-4.89 3.55,-7.39 0.93,-2.58 2.6,-4.69 2.78,-8.48 0.31,-7.09 0.03,-13.75 -0.16,-20.08 l -2.52,2.7 c 12.86,-0.7 25.32,-0.92 38.19,-4.43 l 2.57,-1.12 2.58,-2.62 c 0.98,-1.92 1.24,-3.43 1.65,-5.06 0.68,-3.17 1.07,-6.24 1.42,-9.31 0.66,-6.13 1.05,-12.11 1.31,-18.07 l -1.8,2.37 c 7.73,-2.93 15.39,-7.42 19.1,-15.8 2.42,-8.24 3.69,-15.18 4.8,-23.14 0.37,-3.91 0.74,-7.87 -0.25,-12.15 -0.42,-2.08 -1.52,-4.51 -3.63,-6.19 -2.07,-1.51 -3.38,-1.98 -5.1,-3.02 -6.47,-3.63 -12.87,-7.2 -19.16,-10.72 l 1.32,1.98 c -2.26,-20.9 -4.37,-41.48 -7.15,-61.75 l -0.63,-3.88 c -0.1,-1.19 -1.04,-3.4 -1.85,-4.35 -1.59,-2.32 -3.26,-4.18 -4.93,-6.15 -3.37,-3.83 -6.82,-7.48 -10.26,-11.09 -6.93,-7.19 -13.87,-14.14 -20.81,-20.93 l 0.67,1.2 c -21.99,-92.82 -42.41,-179 -60.68,-256.09 -9.16,-38.52 -17.79,-74.76 -25.8,-108.42 -3.99,-16.77 -7.65,-33.17 -13.22,-48.22 -5.42,-15.08 -11.87,-29.02 -19.03,-41.69 -14.4,-25.35 -31.63,-45.42 -48.68,-60.53 -17.52,-14.99 -36.87,-21.57 -52.54,-23.43 -15.85,-1.9 -28.17,0.75 -35.83,3.62 -3.88,1.43 -6.7,2.76 -8.51,3.85 -1.83,1 -2.75,1.53 -2.71,1.59" /><path
         id="path214"
         style="fill:#f68260;fill-opacity:1;fill-rule:nonzero;stroke:none"
         d="m 3306.69,3267.56 c -0.03,-0.73 -3.38,-1.11 -8.66,-1.36 -5.26,-0.29 -12.5,-0.45 -19.93,-2.36 -7.38,-1.91 -13.38,-5.61 -16.96,-9.06 -3.66,-3.41 -5.26,-6.31 -6,-6 -0.59,0.19 -0.18,3.84 3.24,8.45 3.34,4.61 10.01,9.5 18.41,11.65 8.37,2.13 16.06,1.64 21.38,1 5.35,-0.69 8.56,-1.61 8.52,-2.32" /><path
         id="path216"
         style="fill:#f68260;fill-opacity:1;fill-rule:nonzero;stroke:none"
         d="m 3277.36,3266.47 c -1.35,0.51 -1.44,3.6 -0.2,6.9 1.23,3.31 3.33,5.58 4.68,5.07 1.35,-0.5 1.44,-3.59 0.2,-6.9 -1.24,-3.31 -3.33,-5.58 -4.68,-5.07" /><path
         id="path218"
         style="fill:#f68260;fill-opacity:1;fill-rule:nonzero;stroke:none"
         d="m 3353.55,3230.15 c -0.02,-1.51 -13.39,-3.06 -29.68,-4.1 -8.05,-0.72 -14.12,-3.62 -16.51,-7.95 -2.65,-4.09 -1.76,-7.48 -2.52,-7.7 -0.49,-0.45 -3.19,3.38 -0.77,9.35 1.12,2.83 3.57,5.95 7.15,7.94 3.52,2.04 7.79,3.02 12.03,3.53 16.8,1.09 30.34,0.3 30.3,-1.07" /><path
         id="path220"
         style="fill:#f68260;fill-opacity:1;fill-rule:nonzero;stroke:none"
         d="m 3346.88,3194.18 c 1.45,-0.07 2.28,-7.46 1.87,-16.51 -0.41,-9.06 -1.91,-16.34 -3.34,-16.28 -1.44,0.06 -2.27,7.45 -1.87,16.51 0.41,9.05 1.9,16.35 3.34,16.28" /><path
         id="path222"
         style="fill:#ffffff;fill-opacity:1;fill-rule:nonzero;stroke:none"
         d="m 3388.45,2924.84 8.89,30.66 c 1.79,6.15 9.54,8.1 14.02,3.53 l 11.6,-11.84 7.25,28.83 c 1.91,7.6 12.29,8.64 15.67,1.58 l 16.37,-34.14 -73.8,-18.62" /><path
         id="path224"
         style="fill:#ffffff;fill-opacity:1;fill-rule:nonzero;stroke:none"
         d="m 3462.41,2930.33 c 0.35,-1.39 -15.47,-6.51 -35.31,-11.42 -19.86,-4.92 -36.23,-7.77 -36.58,-6.37 -0.34,1.39 15.47,6.5 35.33,11.42 19.84,4.92 36.22,7.77 36.56,6.37" /><path
         id="path226"
         style="fill:#ffffff;fill-opacity:1;fill-rule:nonzero;stroke:none"
         d="m 2867.73,3101.28 c 0.24,-0.21 -3.72,-3.85 -8.89,-11.89 -5.12,-8.02 -10.8,-20.88 -13.55,-37.76 -2.94,-16.84 -3.08,-37.31 -1.8,-59.91 1.1,-22.63 2.93,-47.48 5.69,-73.48 5.49,-52.03 13.93,-98.7 21.11,-132.21 3.55,-16.77 6.76,-30.27 8.97,-39.59 1,-4.15 1.84,-7.68 2.58,-10.74 0.57,-2.47 0.76,-3.78 0.76,-3.78 0,0 -0.47,1.24 -1.17,3.67 -0.84,3.03 -1.82,6.54 -2.96,10.65 -2.45,9.27 -5.88,22.73 -9.62,39.47 -7.56,33.48 -16.25,80.19 -21.74,132.31 -2.77,26.04 -4.55,50.94 -5.54,73.61 -1.16,22.64 -0.89,43.28 2.26,60.26 2.98,17.02 8.94,29.98 14.34,37.95 5.43,7.98 9.56,11.44 9.56,11.44" /><path
         id="path228"
         style="fill:#ffffff;fill-opacity:1;fill-rule:nonzero;stroke:none"
         d="m 3078.17,3237.23 c 0.03,-0.07 -0.74,-0.49 -2.25,-1.23 -2.03,-0.97 -4.2,-2 -6.6,-3.15 -5.72,-2.72 -13.98,-6.74 -23.9,-12.23 -19.99,-10.75 -46.62,-27.34 -75.15,-46.96 -28.55,-19.63 -53.86,-38.18 -72.34,-51.39 -8.5,-6.02 -15.81,-11.19 -21.96,-15.55 -2.2,-1.49 -4.18,-2.85 -6.04,-4.12 -1.4,-0.92 -2.15,-1.38 -2.2,-1.32 -0.04,0.05 0.63,0.63 1.95,1.66 1.79,1.37 3.7,2.83 5.81,4.43 6.05,4.51 13.23,9.86 21.57,16.09 18.26,13.51 43.44,32.25 72.03,51.92 28.58,19.65 55.41,36.1 75.63,46.54 10.04,5.33 18.43,9.17 24.27,11.67 2.46,1.02 4.69,1.93 6.77,2.8 1.56,0.61 2.39,0.91 2.41,0.84" /><path
         id="path230"
         style="fill:#ffffff;fill-opacity:1;fill-rule:nonzero;stroke:none"
         d="m 3555.08,3172.17 c -0.05,-0.04 -0.62,0.4 -1.67,1.27 -1.43,1.24 -2.92,2.52 -4.5,3.9 -3.93,3.34 -9.79,8 -17.51,13.06 -15.28,10.37 -38.1,22.06 -64.29,32.54 -26.22,10.47 -50.71,17.91 -68.54,22.8 -8.92,2.47 -16.18,4.3 -21.21,5.54 -2.03,0.51 -3.94,1 -5.77,1.47 -1.32,0.36 -2,0.58 -1.99,0.65 0.01,0.07 0.73,-0.01 2.07,-0.24 1.87,-0.35 3.8,-0.71 5.87,-1.09 5.08,-1 12.42,-2.61 21.4,-4.91 17.98,-4.53 42.63,-11.78 68.95,-22.29 26.29,-10.52 49.16,-22.5 64.33,-33.25 15.33,-10.59 22.86,-19.45 22.86,-19.45" /><path
         id="path232"
         style="fill:#ffffff;fill-opacity:1;fill-rule:nonzero;stroke:none"
         d="m 3081,2408.85 c -0.05,-0.12 -1.45,0.31 -3.9,1.34 -2.44,1.03 -5.9,2.73 -9.92,5.31 -7.85,4.97 -18.54,14.73 -21.75,29.45 -3.31,14.43 -0.2,28.05 3.87,36.59 2.02,4.34 4.15,7.58 5.79,9.67 1.64,2.1 2.69,3.13 2.79,3.05 0.34,-0.24 -3.62,-4.68 -7.22,-13.31 -3.63,-8.48 -6.38,-21.66 -3.19,-35.53 3.03,-13.99 13.02,-23.49 20.54,-28.7 7.68,-5.34 13.17,-7.51 12.99,-7.87" /><path
         id="path234"
         style="fill:#ffffff;fill-opacity:1;fill-rule:nonzero;stroke:none"
         d="m 3049.18,2517.13 c 0.55,0.16 2.68,-5.47 4.75,-12.56 2.08,-7.1 3.31,-12.98 2.75,-13.14 -0.54,-0.16 -2.67,5.46 -4.75,12.56 -2.07,7.09 -3.3,12.97 -2.75,13.14" /><path
         id="path236"
         style="fill:#17282f;fill-opacity:1;fill-rule:nonzero;stroke:none"
         d="m 3184.38,275.07 305.04,1.532 -5.54,1054.578 -2.84,1072.7 -413.12,5.14 -74.27,-140.03 c -29.96,-56.49 -50.33,-117.88 -57.14,-181.46 -5.2,-48.46 31.11,-206.51 43.8,-246.72 l 113.71,-360.61 90.36,-1205.13" /><path
         id="path238"
         style="fill:#17282f;fill-opacity:1;fill-rule:nonzero;stroke:none"
         d="m 3570.54,2402.43 335.17,-913.7 c 39.35,-122.45 26.2,-243.87 -41.32,-356.99 l -389.15,-759.56 -218.79,273.742 325.6,680.418 -287.04,465.05 48.3,610.08 135.2,2.17 92.03,-1.21" /><path
         id="path240"
         style="fill:#33535f;fill-opacity:1;fill-rule:nonzero;stroke:none"
         d="m 3453.18,2096.33 c 0,0 0.25,-1.58 0.48,-4.68 0.2,-3.33 0.5,-7.9 0.86,-13.77 0.66,-12.36 1.61,-30.16 2.83,-52.97 2.24,-46.26 5.45,-112.76 9.41,-194.86 3.8,-82.36 8.3,-180.3 13.31,-289.04 2.45,-54.4 5.01,-111.49 7.68,-170.68 1.9,-29.59 1.03,-59.76 1.39,-90.35 0.08,-30.6 0.18,-61.64 0.28,-93.06 0.42,-251.318 0.8,-478.799 1.07,-643.729 -0.1,-82.179 -0.2,-148.769 -0.26,-195.07 -0.15,-22.84 -0.26,-40.66 -0.34,-53.039 -0.09,-5.871 -0.17,-10.453 -0.22,-13.781 -0.07,-3.11 -0.25,-4.699 -0.25,-4.699 0,0 -0.19,1.578 -0.28,4.699 -0.07,3.328 -0.17,7.91 -0.3,13.781 -0.15,12.379 -0.37,30.199 -0.64,53.027 -0.33,46.301 -0.8,112.879 -1.39,195.051 -0.66,164.91 -1.58,392.371 -2.6,643.65 -0.08,31.42 -0.17,62.46 -0.25,93.06 -0.34,30.59 0.56,60.75 -1.31,90.33 -2.56,59.18 -5.03,116.28 -7.37,170.68 -4.59,108.74 -8.72,206.69 -12.19,289.04 -3.27,82.11 -5.93,148.64 -7.77,194.9 -0.79,22.83 -1.42,40.65 -1.85,53.01 -0.14,5.89 -0.26,10.47 -0.35,13.8 -0.05,3.1 0.06,4.7 0.06,4.7" /><path
         id="path242"
         style="fill:#33535f;fill-opacity:1;fill-rule:nonzero;stroke:none"
         d="m 3445.54,2384.41 c 0.36,0.04 1.1,-3.5 2.12,-9.93 1.04,-6.44 2.28,-15.78 3.6,-27.34 2.68,-23.13 5.48,-55.2 7.1,-90.71 1.59,-35.52 1.68,-67.71 1.11,-90.98 -0.29,-11.64 -0.69,-21.06 -1.13,-27.56 -0.44,-6.5 -0.86,-10.09 -1.23,-10.08 -0.75,0.02 -0.95,14.41 -1.32,37.65 -0.37,23.24 -1.05,55.32 -2.63,90.74 -1.61,35.4 -3.83,67.42 -5.56,90.59 -1.72,23.18 -2.81,37.53 -2.06,37.62" /><path
         id="path244"
         style="fill:#33535f;fill-opacity:1;fill-rule:nonzero;stroke:none"
         d="m 3378.33,2363.82 c 0.53,-0.65 -5.2,-3.25 -6.77,-11.4 -0.73,-3.89 0.09,-8.85 3.88,-12.18 3.61,-3.36 9.93,-5.05 15,-2.74 5.06,2.34 7.91,8.21 7.73,13.15 -0.04,5.05 -3.26,8.91 -6.69,10.89 -7.2,4.14 -12.9,1.49 -13.05,2.33 -0.14,0.27 0.96,1.32 3.54,2.07 2.54,0.74 6.7,0.93 11.21,-1.13 4.4,-1.87 9.4,-6.9 9.78,-13.91 0.5,-6.67 -2.89,-14.57 -10.35,-18.14 -7.58,-3.31 -15.77,-0.72 -20.49,4.01 -5.06,4.87 -5.6,11.94 -4.15,16.5 1.4,4.76 4.25,7.79 6.48,9.23 2.25,1.46 3.77,1.6 3.88,1.32" /><path
         id="path246"
         style="fill:#33535f;fill-opacity:1;fill-rule:nonzero;stroke:none"
         d="m 3218.3,2381.94 c 0.28,0.07 1.51,-3.27 2.74,-9.57 1.25,-6.29 2.02,-15.68 0.88,-27.18 -1.09,-11.49 -4.57,-25.06 -11.54,-38.74 -6.92,-13.67 -17.67,-27.28 -32.08,-37.78 -14.56,-10.3 -30.91,-16.14 -46.07,-18.32 -15.19,-2.23 -29.17,-1.18 -40.4,1.45 -11.26,2.61 -19.9,6.34 -25.47,9.53 -5.57,3.18 -8.35,5.42 -8.18,5.66 0.49,1.02 12.29,-7.44 34.38,-11.58 21.56,-4.3 54.8,-2.35 82.7,17.49 27.7,20.09 40.19,50.95 43.01,72.75 3.14,22.25 -1.1,36.15 0.03,36.29" /><path
         id="path248"
         style="fill:#33535f;fill-opacity:1;fill-rule:nonzero;stroke:none"
         d="m 3610.67,2294.39 c 0.01,-0.5 -7.57,-1.07 -19.21,2.28 -11.59,3.25 -26.85,11.43 -39.36,25.17 -12.48,13.79 -19.15,29.77 -21.26,41.61 -2.21,11.92 -0.91,19.4 -0.41,19.34 0.92,0.01 0.97,-7.34 3.99,-18.5 2.94,-11.13 9.74,-25.88 21.53,-38.95 11.87,-12.99 25.89,-21.19 36.69,-25.19 10.81,-4.07 18.13,-4.84 18.03,-5.76" /><path
         id="path250"
         style="fill:#33535f;fill-opacity:1;fill-rule:nonzero;stroke:none"
         d="m 3729.8,1309.32 c 0.35,-0.46 -5.77,-6.57 -17.68,-14.06 -5.97,-3.64 -13.53,-7.62 -22.75,-9.94 -9.13,-2.37 -20.18,-2.69 -30.7,0.82 -21.29,7.02 -34.58,23.03 -42.72,33.99 -8.14,11.34 -12.24,18.87 -11.73,19.24 0.65,0.47 5.87,-6.38 14.62,-16.96 8.74,-10.27 21.93,-24.94 41.42,-31.31 19.56,-6.54 38.31,1.14 50.04,7.36 12.03,6.46 19,11.56 19.5,10.86" /><path
         id="path252"
         style="fill:#33535f;fill-opacity:1;fill-rule:nonzero;stroke:none"
         d="m 3653.45,1250.96 c -1.17,-0.83 -15.3,17.04 -31.56,39.9 -16.27,22.87 -28.51,42.08 -27.33,42.92 1.17,0.83 15.31,-17.03 31.57,-39.91 16.26,-22.86 28.49,-42.08 27.32,-42.91" /><path
         id="path254"
         style="fill:#fafaf9;fill-opacity:1;fill-rule:nonzero;stroke:none"
         d="m 3140.96,2060.87 c -1.33,-0.54 -4.89,5.22 -7.95,12.86 -3.05,7.63 -4.44,14.26 -3.11,14.79 1.34,0.54 4.89,-5.22 7.95,-12.86 3.05,-7.64 4.45,-14.27 3.11,-14.79" /><path
         id="path256"
         style="fill:#fafaf9;fill-opacity:1;fill-rule:nonzero;stroke:none"
         d="m 3334.6,2033.2 c -1.45,0 -2.61,4.96 -2.61,11.06 0,6.12 1.16,11.07 2.61,11.07 1.43,0 2.59,-4.95 2.59,-11.07 0,-6.1 -1.16,-11.06 -2.59,-11.06" /><path
         id="path258"
         style="fill:#fafaf9;fill-opacity:1;fill-rule:nonzero;stroke:none"
         d="m 3255.02,1928.07 c -1.43,-0.09 -3.01,6.02 -3.53,13.66 -0.52,7.63 0.22,13.9 1.66,14 1.44,0.1 3.02,-6.02 3.53,-13.65 0.52,-7.64 -0.22,-13.91 -1.66,-14.01" /><path
         id="path260"
         style="fill:#fafaf9;fill-opacity:1;fill-rule:nonzero;stroke:none"
         d="m 3109.61,1850.64 c -1.18,-0.88 -5.31,2.8 -10.66,6.65 -5.31,3.91 -10.09,6.7 -9.62,8.11 0.39,1.34 6.62,0.53 12.68,-3.9 6.08,-4.39 8.76,-10.07 7.6,-10.86" /><path
         id="path262"
         style="fill:#fafaf9;fill-opacity:1;fill-rule:nonzero;stroke:none"
         d="m 3365.94,1752.91 c -1.2,0.8 0.32,5.15 3.36,9.73 3.06,4.59 6.51,7.66 7.71,6.86 1.19,-0.79 -0.32,-5.16 -3.37,-9.74 -3.06,-4.59 -6.51,-7.65 -7.7,-6.85" /><path
         id="path264"
         style="fill:#fafaf9;fill-opacity:1;fill-rule:nonzero;stroke:none"
         d="m 3207.35,1725.24 c -1.44,0 -2.6,8.26 -2.6,18.45 0,10.18 1.16,18.44 2.6,18.44 1.44,0 2.61,-8.26 2.61,-18.44 0,-10.19 -1.17,-18.45 -2.61,-18.45" /><path
         id="path266"
         style="fill:#fafaf9;fill-opacity:1;fill-rule:nonzero;stroke:none"
         d="m 3155.95,1613.07 c -0.85,-1.16 -6.07,1.19 -11.68,5.27 -5.6,4.07 -9.46,8.31 -8.61,9.48 0.84,1.16 6.06,-1.19 11.67,-5.26 5.6,-4.08 9.46,-8.32 8.62,-9.49" /><path
         id="path268"
         style="fill:#fafaf9;fill-opacity:1;fill-rule:nonzero;stroke:none"
         d="m 3316.15,1574.03 c 0.58,-1.31 -2.66,-4.03 -7.24,-6.06 -4.58,-2.05 -8.77,-2.63 -9.35,-1.31 -0.59,1.31 2.65,4.03 7.23,6.06 4.59,2.04 8.77,2.63 9.36,1.31" /><path
         id="path270"
         style="fill:#fafaf9;fill-opacity:1;fill-rule:nonzero;stroke:none"
         d="m 3207.35,1391.47 c -1.28,-0.64 -6.46,7.09 -11.54,17.28 -5.1,10.18 -8.19,18.96 -6.9,19.6 1.29,0.64 6.46,-7.09 11.55,-17.28 5.09,-10.17 8.18,-18.95 6.89,-19.6" /><path
         id="path272"
         style="fill:#fafaf9;fill-opacity:1;fill-rule:nonzero;stroke:none"
         d="m 3384.38,1408.06 c -1.27,0.69 1.01,7.43 5.08,15.06 4.07,7.64 8.41,13.28 9.68,12.61 1.27,-0.67 -1.01,-7.42 -5.08,-15.06 -4.07,-7.64 -8.41,-13.28 -9.68,-12.61" /><path
         id="path274"
         style="fill:#fafaf9;fill-opacity:1;fill-rule:nonzero;stroke:none"
         d="m 3306.93,1253.17 c -1.48,0.22 -1.36,8.11 -2.89,17.49 -1.44,9.41 -3.98,16.88 -2.64,17.54 1.2,0.68 6.18,-6.4 7.78,-16.73 1.67,-10.3 -0.89,-18.58 -2.25,-18.3" /><path
         id="path276"
         style="fill:#fafaf9;fill-opacity:1;fill-rule:nonzero;stroke:none"
         d="m 3223.95,1164.66 c -1.06,-0.98 -6.05,2.78 -11.15,8.38 -5.09,5.6 -8.35,10.93 -7.3,11.9 1.07,0.97 6.06,-2.79 11.16,-8.4 5.08,-5.6 8.35,-10.92 7.29,-11.88" /><path
         id="path278"
         style="fill:#fafaf9;fill-opacity:1;fill-rule:nonzero;stroke:none"
         d="m 3425.36,1131.06 c -1.03,1.01 2.64,6.4 8.2,12.04 5.57,5.65 10.9,9.41 11.92,8.4 1.03,-1.01 -2.64,-6.41 -8.21,-12.05 -5.56,-5.64 -10.89,-9.39 -11.91,-8.39" /><path
         id="path280"
         style="fill:#fafaf9;fill-opacity:1;fill-rule:nonzero;stroke:none"
         d="m 3309.52,998.57 c -1.43,0.219 -1.45,7.84 -0.05,17.02 1.38,9.19 3.67,16.47 5.1,16.25 1.42,-0.21 1.44,-7.84 0.04,-17.03 -1.39,-9.18 -3.68,-16.451 -5.09,-16.24" /><path
         id="path282"
         style="fill:#fafaf9;fill-opacity:1;fill-rule:nonzero;stroke:none"
         d="m 3231.57,934.281 c -1.24,-0.722 -5.62,4.438 -9.77,11.52 -4.14,7.09 -6.5,13.418 -5.26,14.14 1.24,0.731 5.61,-4.429 9.76,-11.519 4.14,-7.082 6.51,-13.41 5.27,-14.141" /><path
         id="path284"
         style="fill:#fafaf9;fill-opacity:1;fill-rule:nonzero;stroke:none"
         d="m 3419.34,853.109 c 0.84,-1.168 -4.26,-6.25 -11.39,-11.347 -7.11,-5.102 -13.57,-8.293 -14.41,-7.114 -0.83,1.172 4.26,6.25 11.39,11.34 7.12,5.102 13.57,8.293 14.41,7.121" /><path
         id="path286"
         style="fill:#fafaf9;fill-opacity:1;fill-rule:nonzero;stroke:none"
         d="m 3262.94,747.801 c -1.39,0.508 0.4,8.558 1.23,18.519 0.91,9.942 0.57,18.18 2.04,18.43 1.35,0.301 4.12,-8.16 3.14,-18.891 -0.92,-10.75 -5.12,-18.589 -6.41,-18.058" /><path
         id="path288"
         style="fill:#fafaf9;fill-opacity:1;fill-rule:nonzero;stroke:none"
         d="m 3325.38,596.68 c -1.13,-0.899 -5.35,2.511 -9.42,7.59 -4.07,5.089 -6.46,9.96 -5.34,10.851 1.12,0.899 5.33,-2.5 9.4,-7.59 4.08,-5.09 6.47,-9.949 5.36,-10.851" /><path
         id="path290"
         style="fill:#fafaf9;fill-opacity:1;fill-rule:nonzero;stroke:none"
         d="m 3257.14,495.262 c -1.19,-0.821 -6.69,5.129 -12.29,13.269 -5.6,8.16 -9.18,15.41 -7.99,16.231 1.18,0.808 6.68,-5.121 12.29,-13.282 5.59,-8.14 9.18,-15.41 7.99,-16.218" /><path
         id="path292"
         style="fill:#fafaf9;fill-opacity:1;fill-rule:nonzero;stroke:none"
         d="m 3445.24,622.5 c -1.35,0.5 -1.2,4.219 0.32,8.289 1.54,4.07 3.86,6.961 5.21,6.461 1.34,-0.5 1.2,-4.219 -0.34,-8.289 -1.52,-4.07 -3.85,-6.969 -5.19,-6.461" /><path
         id="path294"
         style="fill:#fafaf9;fill-opacity:1;fill-rule:nonzero;stroke:none"
         d="m 3362.25,380.922 c -1.32,0.699 1.19,7.816 3.14,16.719 2.01,8.898 2.75,16.41 4.23,16.48 1.39,0.117 3.02,-7.922 0.84,-17.609 -2.11,-9.692 -7.01,-16.282 -8.21,-15.59" /><path
         id="path296"
         style="fill:#fafaf9;fill-opacity:1;fill-rule:nonzero;stroke:none"
         d="m 3416.18,1926.46 c -1.3,-0.61 -4.48,3.41 -7.08,8.99 -2.61,5.57 -3.67,10.58 -2.37,11.19 1.31,0.61 4.48,-3.41 7.08,-8.99 2.61,-5.57 3.68,-10.58 2.37,-11.19" /><path
         id="path298"
         style="fill:#fafaf9;fill-opacity:1;fill-rule:nonzero;stroke:none"
         d="m 3277.43,2237.89 c 0.79,-1.26 -6.25,-6.89 -13.68,-14.89 -7.51,-7.93 -12.67,-15.32 -13.99,-14.61 -1.24,0.6 2.15,9.65 10.19,18.17 7.98,8.57 16.8,12.54 17.48,11.33" /><path
         id="path300"
         style="fill:#fafaf9;fill-opacity:1;fill-rule:nonzero;stroke:none"
         d="m 3400.98,2241.58 c -1.45,-0.29 -3.81,5.65 -7.27,12.5 -3.4,6.89 -6.74,12.34 -5.64,13.32 1.02,0.96 6.53,-3.4 10.29,-10.99 3.81,-7.57 4,-14.59 2.62,-14.83" /><path
         id="path302"
         style="fill:#fafaf9;fill-opacity:1;fill-rule:nonzero;stroke:none"
         d="m 3016.04,2139.97 c -1.34,0.53 0.03,7.16 3.06,14.81 3.02,7.65 6.56,13.42 7.9,12.9 1.34,-0.53 -0.03,-7.16 -3.06,-14.81 -3.03,-7.65 -6.56,-13.42 -7.9,-12.9" /><path
         id="path304"
         style="fill:#fafaf9;fill-opacity:1;fill-rule:nonzero;stroke:none"
         d="m 3028.48,1988.94 c -0.93,-1.1 -6.62,2.13 -12.73,7.23 -6.12,5.09 -10.32,10.11 -9.4,11.22 0.92,1.1 6.61,-2.13 12.73,-7.23 6.11,-5.08 10.32,-10.11 9.4,-11.22" /><path
         id="path306"
         style="fill:#fafaf9;fill-opacity:1;fill-rule:nonzero;stroke:none"
         d="m 3281.12,2357.76 c -1.34,-0.54 -4.07,3.16 -6.11,8.25 -2.04,5.1 -2.6,9.66 -1.27,10.19 1.33,0.53 4.07,-3.16 6.1,-8.25 2.04,-5.1 2.61,-9.66 1.28,-10.19" /><path
         id="path308"
         style="fill:#fafaf9;fill-opacity:1;fill-rule:nonzero;stroke:none"
         d="m 3523,2283.93 c -1.4,0.31 -1.28,6.33 0.28,13.45 1.56,7.12 3.96,12.65 5.37,12.34 1.4,-0.31 1.28,-6.33 -0.29,-13.46 -1.56,-7.12 -3.96,-12.64 -5.36,-12.33" /><path
         id="path310"
         style="fill:#fafaf9;fill-opacity:1;fill-rule:nonzero;stroke:none"
         d="m 3579.85,2169.66 c -1.33,0.55 0.49,8.01 4.05,16.67 3.57,8.66 7.53,15.23 8.86,14.68 1.33,-0.54 -0.48,-8.01 -4.04,-16.66 -3.57,-8.66 -7.54,-15.23 -8.87,-14.69" /><path
         id="path312"
         style="fill:#fafaf9;fill-opacity:1;fill-rule:nonzero;stroke:none"
         d="m 3539.28,2077.46 c -1.29,-0.65 -6.04,6.27 -10.62,15.43 -4.59,9.17 -7.26,17.12 -5.98,17.76 1.29,0.65 6.05,-6.26 10.64,-15.43 4.58,-9.17 7.25,-17.12 5.96,-17.76" /><path
         id="path314"
         style="fill:#fafaf9;fill-opacity:1;fill-rule:nonzero;stroke:none"
         d="m 3625.95,1985.26 c -1.34,0.52 -0.36,6.3 2.18,12.92 2.55,6.62 5.7,11.56 7.04,11.05 1.35,-0.51 0.37,-6.3 -2.18,-12.92 -2.55,-6.62 -5.7,-11.57 -7.04,-11.05" /><path
         id="path316"
         style="fill:#fafaf9;fill-opacity:1;fill-rule:nonzero;stroke:none"
         d="m 3548.5,1894.9 c -1.22,-0.76 -4.27,1.92 -6.81,6 -2.55,4.07 -3.63,7.99 -2.41,8.76 1.22,0.76 4.27,-1.93 6.82,-6.01 2.55,-4.07 3.62,-7.99 2.4,-8.75" /><path
         id="path318"
         style="fill:#fafaf9;fill-opacity:1;fill-rule:nonzero;stroke:none"
         d="m 3565.03,1708.59 c -1.05,-0.99 -7.27,4 -13.89,11.13 -6.62,7.13 -11.13,13.7 -10.08,14.68 1.05,0.98 7.28,-4 13.9,-11.13 6.62,-7.13 11.13,-13.7 10.07,-14.68" /><path
         id="path320"
         style="fill:#fafaf9;fill-opacity:1;fill-rule:nonzero;stroke:none"
         d="m 3666.52,1815.6 c -1.12,-0.89 -6.58,4.17 -12.19,11.3 -5.6,7.13 -9.23,13.63 -8.09,14.52 1.13,0.89 6.59,-4.17 12.18,-11.3 5.61,-7.13 9.23,-13.63 8.1,-14.52" /><path
         id="path322"
         style="fill:#fafaf9;fill-opacity:1;fill-rule:nonzero;stroke:none"
         d="m 3722.2,1667.91 c -1.3,0.61 0.97,8.12 5.07,16.76 4.1,8.66 8.48,15.16 9.78,14.55 1.3,-0.62 -0.97,-8.13 -5.07,-16.77 -4.1,-8.64 -8.48,-15.16 -9.78,-14.54" /><path
         id="path324"
         style="fill:#fafaf9;fill-opacity:1;fill-rule:nonzero;stroke:none"
         d="m 3603.82,1546.37 c -1.27,-0.77 -5.91,4.79 -12.35,10.67 -6.38,5.95 -12.28,10.13 -11.62,11.46 0.58,1.26 8.14,-1.12 15.16,-7.63 7.05,-6.48 10.03,-13.83 8.81,-14.5" /><path
         id="path326"
         style="fill:#fafaf9;fill-opacity:1;fill-rule:nonzero;stroke:none"
         d="m 3611.2,1420.97 c 0,-1.43 -4.95,-2.59 -11.07,-2.59 -6.1,0 -11.06,1.16 -11.06,2.59 0,1.44 4.96,2.61 11.06,2.61 6.12,0 11.07,-1.17 11.07,-2.61" /><path
         id="path328"
         style="fill:#fafaf9;fill-opacity:1;fill-rule:nonzero;stroke:none"
         d="m 3732.91,1456.01 c -1.26,0.78 1.3,7.01 3.22,14.87 2.01,7.84 2.67,14.54 4.16,14.63 1.38,0.16 3.1,-7.14 0.9,-15.89 -2.17,-8.76 -7.13,-14.4 -8.28,-13.61" /><path
         id="path330"
         style="fill:#fafaf9;fill-opacity:1;fill-rule:nonzero;stroke:none"
         d="m 3853.82,1413.97 c -1.35,-0.48 -5.04,6.53 -8.24,15.64 -3.2,9.12 -4.7,16.89 -3.34,17.37 1.36,0.48 5.05,-6.52 8.25,-15.65 3.2,-9.11 4.69,-16.89 3.33,-17.36" /><path
         id="path332"
         style="fill:#fafaf9;fill-opacity:1;fill-rule:nonzero;stroke:none"
         d="m 3834.56,1241.98 c -1.27,0.67 1.81,9.06 6.88,18.74 5.08,9.69 10.23,17 11.5,16.33 1.27,-0.67 -1.81,-9.05 -6.88,-18.74 -5.08,-9.69 -10.22,-16.99 -11.5,-16.33" /><path
         id="path334"
         style="fill:#fafaf9;fill-opacity:1;fill-rule:nonzero;stroke:none"
         d="m 3724.2,1140.9 c -1.32,-0.55 -5.42,6.37 -9.17,15.47 -3.74,9.1 -5.68,16.91 -4.35,17.46 1.33,0.54 5.44,-6.38 9.17,-15.48 3.74,-9.1 5.69,-16.91 4.35,-17.45" /><path
         id="path336"
         style="fill:#fafaf9;fill-opacity:1;fill-rule:nonzero;stroke:none"
         d="m 3601.98,1101.95 c 0,-1.44 -4.13,-2.6 -9.22,-2.6 -5.09,0 -9.22,1.16 -9.22,2.6 0,1.45 4.13,2.61 9.22,2.61 5.09,0 9.22,-1.16 9.22,-2.61" /><path
         id="path338"
         style="fill:#fafaf9;fill-opacity:1;fill-rule:nonzero;stroke:none"
         d="m 3672.06,941.52 c -1.39,-0.372 -4.17,5.519 -6.2,13.152 -2.05,7.648 -2.57,14.137 -1.18,14.508 1.39,0.371 4.16,-5.52 6.2,-13.16 2.04,-7.629 2.56,-14.129 1.18,-14.5" /><path
         id="path340"
         style="fill:#fafaf9;fill-opacity:1;fill-rule:nonzero;stroke:none"
         d="m 3583.54,995 c -1.23,0.742 0.24,5.47 3.3,10.55 3.06,5.1 6.53,8.63 7.77,7.88 1.23,-0.73 -0.25,-5.45 -3.31,-10.55 -3.05,-5.091 -6.53,-8.63 -7.76,-7.88" /><path
         id="path342"
         style="fill:#fafaf9;fill-opacity:1;fill-rule:nonzero;stroke:none"
         d="m 3581.69,817.969 c -1.42,-0.168 -3.4,6.711 -4.43,15.371 -1.01,8.66 -0.68,15.808 0.74,15.969 1.44,0.171 3.42,-6.707 4.44,-15.368 1.01,-8.652 0.68,-15.812 -0.75,-15.972" /></g></g></svg>